<svg id="Layer_1" data-name="Layer 1" xmlns="http://www.w3.org/2000/svg" viewBox="0 0 750 500"><defs><style>.cls-1{fill:#f5f5f5;}.cls-2{fill:#e0e0e0;}.cls-3{fill:#ebebeb;}.cls-4{fill:#fff;}.cls-5{fill:#fafafa;}.cls-6{fill:#86a789;}.cls-7{opacity:0.3;}.cls-8{fill:#263238;}.cls-9{fill:#ffbe9d;}.cls-10{fill:#455a64;}.cls-11{fill:#eb996e;}.cls-12{fill:#4b684d;}.cls-13{fill:#b78876;}.cls-14{fill:#aa6550;}</style></defs><title>login_illustration2</title><g id="Background_Complete" data-name="Background Complete"><path class="cls-1" d="M640.21,464.35c-26.05-16-33.68-48-34.45-77.23-.13-4.88-1-10,1.08-14.38s7.28-7.65,11.76-5.86c3.72,1.48,5.54,5.59,7.77,8.94A28.57,28.57,0,0,0,638.44,386c3.19,1.42,7.08,2.17,10,.3,4.06-2.57,4.2-8.4,3.88-13.23l-1.8-27c-.32-4.84-.64-9.77.59-14.46s4.3-9.14,8.82-10.71,10.38.74,11.63,5.42c.53,1.94.25,4,.5,6s1.33,4.17,3.27,4.61,3.82-1,5.18-2.54c4.7-5.18,7.71-11.68,10.49-18.13s5.48-13,9.69-18.64,10.22-10.2,17.13-11,14.54,3,16.7,9.71-1.39,13.88-5.39,19.66A108.33,108.33,0,0,1,708,338.77c-1.46,1.17-3,2.44-3.52,4.27-.85,3.29,2.4,6.31,5.64,7.17,3.68,1,7.57.38,11.37.59s8,1.64,9.63,5.12c2.28,4.82-1.54,10.25-5.41,13.89a92.76,92.76,0,0,1-26.42,17.46c-3.48,1.52-7.16,2.89-9.88,5.56s-4.18,7.12-2.24,10.43,6.45,4.13,10.14,3.21,6.9-3.14,10.37-4.7c6.5-2.91,15.11-3,19.71,2.52,3,3.61,3.59,8.85,2.45,13.44s-3.78,8.64-6.61,12.4c-9.9,13.14-22.94,24-38,30.31s-29.3,8.59-45,3.91"/><path class="cls-2" d="M646.63,445.63c3.4-15,8.49-31.06,14.39-47.71l4.41-12.31c1.46-4,2.91-8.05,4.56-11.87a215.11,215.11,0,0,1,10.78-21.46c3.76-6.66,7.57-12.84,11.17-18.6s7.09-11,10.46-15.73A172.12,172.12,0,0,1,719.94,297c2.26-2.3,4.07-4,5.31-5.18l1.42-1.31a2.86,2.86,0,0,1,.5-.42,3.42,3.42,0,0,1-.44.49L725.37,292c-1.2,1.19-3,3-5.18,5.29a182.52,182.52,0,0,0-17.28,21.06c-3.33,4.7-6.76,10-10.34,15.76s-7.36,12-11.09,18.61a218.89,218.89,0,0,0-10.69,21.4c-1.64,3.81-3.07,7.78-4.53,11.83s-2.91,8.15-4.4,12.3c-5.9,16.64-11,32.69-14.43,47.6"/><path class="cls-2" d="M670.25,373.69a9.82,9.82,0,0,1-.6-2c-.34-1.32-.76-3.25-1.24-5.64-1-4.77-2.1-11.41-3.31-18.74s-2.42-13.94-3.46-18.68c-.52-2.38-.95-4.3-1.27-5.62a9.22,9.22,0,0,1-.4-2.08,9.06,9.06,0,0,1,.73,2c.42,1.3.95,3.2,1.55,5.56,1.21,4.73,2.52,11.34,3.73,18.68S668.22,361,669,366l1,5.68A10.3,10.3,0,0,1,670.25,373.69Z"/><path class="cls-2" d="M731.74,358.31a12.82,12.82,0,0,1-2.46.44c-1.59.24-3.89.58-6.71,1.08-5.66,1-13.44,2.55-21.93,4.69s-16.1,4.43-21.56,6.24c-2.73.88-4.92,1.66-6.44,2.18a14.11,14.11,0,0,1-2.39.75,12.67,12.67,0,0,1,2.26-1.08c1.49-.62,3.65-1.49,6.37-2.46a223.37,223.37,0,0,1,21.54-6.5,217.88,217.88,0,0,1,22.05-4.45c2.85-.43,5.16-.66,6.77-.79A11.64,11.64,0,0,1,731.74,358.31Z"/><path class="cls-2" d="M647.32,444.44a3.85,3.85,0,0,1-.47-.74l-1.2-2.18c-1-1.91-2.45-4.7-4.17-8.17-3.43-7-7.87-16.69-12.62-27.5s-9.09-20.59-12.37-27.6L612.58,370l-1.05-2.26a4.81,4.81,0,0,1-.32-.82,3.54,3.54,0,0,1,.48.73l1.2,2.19c1,1.9,2.45,4.69,4.17,8.16,3.43,6.95,7.86,16.69,12.62,27.51s9.09,20.58,12.37,27.59c1.61,3.4,2.93,6.21,3.91,8.29l1,2.26A2.83,2.83,0,0,1,647.32,444.44Z"/><path class="cls-2" d="M728.37,412.81a4,4,0,0,1-.8.39l-2.36.95-8.67,3.4c-7.33,2.87-17.4,7-28.53,11.49s-21.25,8.53-28.64,11.25c-3.69,1.37-6.69,2.44-8.78,3.14l-2.41.79a3.62,3.62,0,0,1-.86.22,3.12,3.12,0,0,1,.8-.39l2.35-.95,8.68-3.4c7.33-2.88,17.4-7,28.53-11.5s21.25-8.52,28.63-11.25c3.7-1.36,6.7-2.43,8.79-3.13l2.4-.79A3.27,3.27,0,0,1,728.37,412.81Z"/><path class="cls-1" d="M653.14,132.72c-4.44,11.12-11.56,29.11-14.82,37.37a4.75,4.75,0,0,0,2.66,6.16l30.39,12.1a4.75,4.75,0,0,0,6.17-2.66h0l14.75-37a10.55,10.55,0,0,0-5.9-13.7h0l2.17-5.45-19.9-7.92-2,5.14h-.08A10.54,10.54,0,0,0,653.14,132.72Z"/><polygon class="cls-2" points="668.38 122.29 667.39 124.77 687.01 133.4 688.28 130.22 668.38 122.29"/><path class="cls-3" d="M672.15,114.23l19,7.56a3,3,0,0,1,1.67,3.9L690.71,131a1.92,1.92,0,0,1-2.51,1.07l-21-8.35a1.93,1.93,0,0,1-1.08-2.51l2.11-5.3a3,3,0,0,1,3.9-1.68Z"/><path class="cls-2" d="M668.59,124.26a25.2,25.2,0,0,1,1.7-5,25.05,25.05,0,0,1,2.22-4.82,25.2,25.2,0,0,1-1.7,5A25.05,25.05,0,0,1,668.59,124.26Z"/><path class="cls-2" d="M671.21,125.3a26.55,26.55,0,0,1,1.7-5,25,25,0,0,1,2.22-4.81,25.2,25.2,0,0,1-1.7,5A24.38,24.38,0,0,1,671.21,125.3Z"/><path class="cls-2" d="M673.84,126.35a24.54,24.54,0,0,1,1.69-5,26,26,0,0,1,2.22-4.82,24.54,24.54,0,0,1-1.69,5A26,26,0,0,1,673.84,126.35Z"/><path class="cls-2" d="M676.46,127.39a24,24,0,0,1,1.7-5,25,25,0,0,1,2.22-4.81,25.2,25.2,0,0,1-1.7,5A25,25,0,0,1,676.46,127.39Z"/><path class="cls-2" d="M679.08,128.44a25.2,25.2,0,0,1,1.7-5A25.22,25.22,0,0,1,683,118.6a25.2,25.2,0,0,1-1.7,5A25.22,25.22,0,0,1,679.08,128.44Z"/><path class="cls-2" d="M681.7,129.48a25.2,25.2,0,0,1,1.7-5,25,25,0,0,1,2.22-4.81,26.55,26.55,0,0,1-1.7,5A25,25,0,0,1,681.7,129.48Z"/><path class="cls-2" d="M684.33,130.53a24.54,24.54,0,0,1,1.69-5,25.05,25.05,0,0,1,2.22-4.82,24.54,24.54,0,0,1-1.69,5A26.63,26.63,0,0,1,684.33,130.53Z"/><path class="cls-2" d="M687,131.57a24,24,0,0,1,1.7-5,24.38,24.38,0,0,1,2.22-4.81,26.55,26.55,0,0,1-1.7,5A25,25,0,0,1,687,131.57Z"/><rect class="cls-3" x="656.9" y="140.08" width="20.3" height="30.69" rx="1.48" transform="translate(275.8 717.6) rotate(-68.28)"/><path class="cls-2" d="M676.17,168.46a.86.86,0,0,1,.1-.33l.33-.88c.31-.82.73-1.93,1.27-3.34,1.12-2.89,2.7-7,4.61-11.91l.13.29-25-9.9c-.09,0,.69-.3.36-.15h0v.07l-.06.14-.11.27-.21.54-.43,1.08c-.29.72-.58,1.43-.86,2.14-.56,1.42-1.12,2.81-1.67,4.18-1.09,2.74-2.15,5.37-3.15,7.88l-.15-.34,17.89,7.26,5.15,2.13,1.37.58a3.12,3.12,0,0,1,.49.23l-.45-.15-1.36-.51-5.14-2-18.14-7.09-.24-.09.1-.24,3.12-7.89c.55-1.37,1.1-2.77,1.66-4.18.28-.71.57-1.43.85-2.15l.43-1.08.22-.54.11-.27V142h0l.36-.16,25,10,.21.08-.08.21-4.89,12-1.35,3.24c-.14.34-.26.61-.36.83S676.18,168.47,676.17,168.46Z"/><path class="cls-2" d="M676.71,155.84a72.81,72.81,0,0,1-8.59-3.12,75.1,75.1,0,0,1-8.39-3.64,73,73,0,0,1,8.6,3.12A75.76,75.76,0,0,1,676.71,155.84Z"/><path class="cls-2" d="M675.56,158.73a72.81,72.81,0,0,1-8.59-3.12,75.1,75.1,0,0,1-8.39-3.64,73,73,0,0,1,8.6,3.12A75.76,75.76,0,0,1,675.56,158.73Z"/><path class="cls-2" d="M674.46,161.51a74.85,74.85,0,0,1-8.6-3.13,75.1,75.1,0,0,1-8.39-3.64,74.79,74.79,0,0,1,8.6,3.12A73.35,73.35,0,0,1,674.46,161.51Z"/><path class="cls-2" d="M685.32,134.34a86.78,86.78,0,0,1-9.37-3.43,92.12,92.12,0,0,1-9.17-4,89.13,89.13,0,0,1,9.38,3.43A90.66,90.66,0,0,1,685.32,134.34Z"/><path class="cls-4" d="M640.81,168.6a14.07,14.07,0,0,1,.6-1.8l1.84-4.8c1.57-4.05,3.77-9.62,6.24-15.77,1.24-3.07,2.43-6,3.51-8.66a18.75,18.75,0,0,1,3.94-6.57,8.25,8.25,0,0,1,4.59-2.34,5.62,5.62,0,0,1,1.42,0,1.88,1.88,0,0,1,.48.12,10.56,10.56,0,0,0-1.86.11,8.3,8.3,0,0,0-4.35,2.41,18.78,18.78,0,0,0-3.74,6.48c-1.07,2.67-2.24,5.6-3.46,8.67-2.47,6.15-4.74,11.7-6.4,15.71-.82,1.93-1.49,3.53-2,4.74A13.23,13.23,0,0,1,640.81,168.6Z"/><path class="cls-4" d="M675,188.14a8.18,8.18,0,0,1-1.19-1c-.37-.33-.82-.72-1.38-1.15s-1.15-1-1.87-1.47a51.65,51.65,0,0,0-19.15-9,54.06,54.06,0,0,0-6.08-1.07c-.87-.12-1.67-.16-2.37-.22s-1.3-.09-1.79-.1a7.83,7.83,0,0,1-1.53-.12,7.87,7.87,0,0,1,1.53-.1H643a14.7,14.7,0,0,1,2.39.14,47.49,47.49,0,0,1,6.16,1,51.38,51.38,0,0,1,7.3,2.26,53,53,0,0,1,6.85,3.37,45.31,45.31,0,0,1,5.12,3.55c.72.53,1.3,1.08,1.84,1.54A15.48,15.48,0,0,1,674,187,6.81,6.81,0,0,1,675,188.14Z"/><rect class="cls-2" x="44.73" y="193.4" width="98.02" height="134.64" rx="2.41" transform="translate(-103.79 66.44) rotate(-25.7)"/><rect class="cls-5" x="49.43" y="196.43" width="87.07" height="125.33" transform="translate(-103.16 65.94) rotate(-25.7)"/><path class="cls-3" d="M82.57,196.65a10.66,10.66,0,0,0-11.16-1.16L69,190.72a7.33,7.33,0,0,0-9.78-3.43h0a7.33,7.33,0,0,0-3.43,9.78l2.41,5-1.67.84a10.67,10.67,0,0,0-5.88,9.4v2.48l34.16-16.44Zm-18.23.78a3.94,3.94,0,1,1,1.85-5.26,3.95,3.95,0,0,1-1.85,5.26Z"/><path class="cls-2" d="M63.35,223.51c.07.14-4.64,2.54-10.51,5.37s-10.7,5-10.76,4.87,4.64-2.55,10.51-5.38S63.28,223.37,63.35,223.51Z"/><path class="cls-2" d="M54.06,232.4a28.8,28.8,0,0,1-5,2.72,28.47,28.47,0,0,1-5.25,2.21,30.61,30.61,0,0,1,5-2.72A28.47,28.47,0,0,1,54.06,232.4Z"/><path class="cls-2" d="M108.85,218.34c.06.14-13.14,6.63-29.48,14.5s-29.66,14.14-29.73,14,13.13-6.64,29.48-14.51S108.78,218.2,108.85,218.34Z"/><path class="cls-2" d="M111.56,224c.07.14-13.13,6.64-29.48,14.51s-29.65,14.13-29.72,14,13.13-6.63,29.48-14.5S111.5,223.84,111.56,224Z"/><path class="cls-2" d="M114.28,229.63c.07.14-13.13,6.63-29.48,14.5s-29.66,14.14-29.72,14,13.12-6.63,29.48-14.51S114.21,229.49,114.28,229.63Z"/><path class="cls-2" d="M117,235.28c.07.14-13.13,6.63-29.48,14.5s-29.66,14.13-29.73,14,13.13-6.63,29.48-14.5S116.93,235.14,117,235.28Z"/><path class="cls-2" d="M119.72,240.92c.06.14-13.14,6.63-29.48,14.5s-29.66,14.14-29.73,14,13.13-6.63,29.48-14.5S119.65,240.78,119.72,240.92Z"/><path class="cls-2" d="M122.43,246.57c.07.14-13.13,6.63-29.48,14.5s-29.65,14.13-29.72,14,13.13-6.63,29.48-14.5S122.37,246.43,122.43,246.57Z"/><path class="cls-2" d="M95.28,265.91a6,6,0,0,1-1.12.65L91,268.17c-2.65,1.34-6.34,3.15-10.43,5.11s-7.8,3.72-10.5,5l-3.21,1.44a6.59,6.59,0,0,1-1.21.47,4.79,4.79,0,0,1,1.11-.66l3.14-1.61c2.65-1.34,6.34-3.15,10.43-5.11s7.8-3.72,10.5-5L94,266.37A5,5,0,0,1,95.28,265.91Z"/><path class="cls-2" d="M104.62,203a25.26,25.26,0,0,1-4.62,2.53,24.49,24.49,0,0,1-4.86,2A25.26,25.26,0,0,1,99.76,205,25.75,25.75,0,0,1,104.62,203Z"/><path class="cls-2" d="M87.75,284.69a64.73,64.73,0,0,1-7.57,3.95,66.18,66.18,0,0,1-7.81,3.45,65.08,65.08,0,0,1,7.57-4A65.15,65.15,0,0,1,87.75,284.69Z"/><path class="cls-2" d="M90.73,289.56a67.68,67.68,0,0,1-7.7,4,67.67,67.67,0,0,1-7.94,3.51,67.68,67.68,0,0,1,7.7-4A67.67,67.67,0,0,1,90.73,289.56Z"/><path class="cls-2" d="M132,262.45a15.4,15.4,0,0,1-3.59,2,15.59,15.59,0,0,1-3.84,1.54,15,15,0,0,1,3.59-2A15.75,15.75,0,0,1,132,262.45Z"/><path class="cls-2" d="M134.45,266.94a15.4,15.4,0,0,1-3.59,2,15.75,15.75,0,0,1-3.84,1.54,15,15,0,0,1,3.59-2A15.59,15.59,0,0,1,134.45,266.94Z"/><path class="cls-2" d="M86.14,298.4a13.93,13.93,0,0,1-3.47,2A13.87,13.87,0,0,1,79,301.86a15,15,0,0,1,3.47-2A14.73,14.73,0,0,1,86.14,298.4Z"/><path class="cls-2" d="M137.3,272.2a8.44,8.44,0,0,1-2.57,1.55,8.34,8.34,0,0,1-2.82,1,8.44,8.44,0,0,1,2.57-1.55A8.34,8.34,0,0,1,137.3,272.2Z"/><path class="cls-2" d="M84.34,314.24a1.33,1.33,0,0,1,.3-.23l.91-.61L89,311.16l12.54-7.87.25-.15.1.27a7,7,0,0,1,.14,4.76,5.8,5.8,0,0,1-8.79,3.14,5,5,0,0,1-1.79-5.26,4.46,4.46,0,0,1,1-2,3,3,0,0,1,.4-.39,2.34,2.34,0,0,1,.49-.33.85.85,0,0,1,.76,0,1.38,1.38,0,0,1,.43.5,9.49,9.49,0,0,1,1.09,4,9.34,9.34,0,0,1-.61,3.95,6,6,0,0,1-2.33,3.08,3.44,3.44,0,0,1-3.64-.08,5.23,5.23,0,0,1-2.17-2.71,12.59,12.59,0,0,1,0-6.1l.06-.41.28.31a8.42,8.42,0,0,1,2.06,4.66,9.2,9.2,0,0,1-.36,3.83,8,8,0,0,1-1.09,2.17c-.16.22-.31.38-.4.49l-.15.15a10.62,10.62,0,0,0,1.43-2.88,9,9,0,0,0,.25-3.72,8.15,8.15,0,0,0-2-4.43l.34-.1a12.19,12.19,0,0,0,0,5.88,4.78,4.78,0,0,0,2,2.43,3,3,0,0,0,3.13.07,5.58,5.58,0,0,0,2.09-2.83,9.25,9.25,0,0,0-.47-7.48.8.8,0,0,0-.23-.29h-.24a2.66,2.66,0,0,0-.71.58,4.13,4.13,0,0,0-.9,1.72,4.49,4.49,0,0,0,1.57,4.68,5.27,5.27,0,0,0,7.32-1.41,5.14,5.14,0,0,0,.68-1.44,6.64,6.64,0,0,0-.1-4.42l.35.11-12.64,7.71-3.56,2.12-1,.54A2.09,2.09,0,0,1,84.34,314.24Z"/><path class="cls-2" d="M140.42,287a3.39,3.39,0,0,1-.18,1,4,4,0,0,1-.49,1.15,2.4,2.4,0,0,1-1.36,1,1.7,1.7,0,0,1-1,0,2.27,2.27,0,0,1-.9-.7,23.62,23.62,0,0,1-1.21-2.06l-2.68-4.9.49-.12c-.09,2.48-.18,5.18-.28,8a16.47,16.47,0,0,1-.08,2v1.12l-.49-1-4.05-8.33.44-.05a28.24,28.24,0,0,0-1,7.54c0,1.84.12,2.89.06,2.9a3.7,3.7,0,0,1-.16-.75,19.28,19.28,0,0,1-.18-2.15,26,26,0,0,1,.84-7.66l.16-.62.29.57,4.12,8.31-.53.11a16.89,16.89,0,0,1,.08-2c.11-2.83.22-5.53.32-8v-1l.45.86,2.61,4.94a21.83,21.83,0,0,0,1.13,2,1.45,1.45,0,0,0,1.56.66,2.74,2.74,0,0,0,1.77-1.92A4.67,4.67,0,0,1,140.42,287Z"/><path class="cls-2" d="M140.3,283c.09.12-4.37,3.31-10,7.11s-10.19,6.77-10.27,6.64,4.37-3.31,10-7.11S140.21,282.84,140.3,283Z"/><path class="cls-2" d="M145.78,283.91a88.41,88.41,0,0,1-7.3,6.65,89.78,89.78,0,0,1-7.67,6.22,86.82,86.82,0,0,1,7.3-6.65A87.9,87.9,0,0,1,145.78,283.91Z"/><path class="cls-1" d="M185.29,51.24h-4.55l-9.92-13.82V28.35s-7-.44-6.19,11.44-.07,8.86-.07,8.86S149.64,48.7,148.4,50c-.9.94-1.31,15.76-1.46,23.8-.08,4,2.4,7.8,6.16,8.76a6.3,6.3,0,0,0,1.61.21c3.72,0,22.73-3,22.73-3h7.85Z"/><polygon class="cls-1" points="198.3 48.75 195.5 79.83 187.72 79.83 187.72 49.38 198.3 48.75"/></g><g id="Icons"><path class="cls-6" d="M535.88,54c-1.17-9.45-9.17-18.27-18.7-18.28-5.63,0-11,2.94-14.83,7a39.08,39.08,0,0,0-3.76,4.46,37.34,37.34,0,0,0-2.81-5.11c-3-4.79-7.63-8.72-13.15-9.83-9.34-1.87-18.92,5.2-21.93,14.24s-.51,19.2,4.44,27.34,13.49,18.78,29.2,24.06c10.83-1.39,25.34-11,31.8-18S537.05,63.45,535.88,54Z"/><path class="cls-5" d="M532.44,71h-.31l-.92-.06-3.53-.29-13-1.18.23-.15c-1.56,4.08-3.39,8.85-5.4,14.08l-.32.85-.21-.88c-1.65-6.84-3.49-14.49-5.44-22.56-.59-2.49-1.18-5-1.76-7.35l.55.11-9.89,13.6-.09.13h-.16l-22.78-2.37L463,64.17,461.3,64a2.83,2.83,0,0,1-.58-.11,2.91,2.91,0,0,1,.59,0L463,64l6.47.57,22.79,2.15-.25.11,9.84-13.63.4-.55.15.66c.58,2.39,1.17,4.85,1.77,7.35,1.92,8.07,3.75,15.73,5.38,22.56H509c2-5.22,3.91-10,5.5-14l.07-.16h.17l12.94,1.38,3.51.41.92.13A1.15,1.15,0,0,1,532.44,71Z"/><rect class="cls-6" x="294.25" y="113.05" width="7.13" height="31.96"/><rect class="cls-6" x="281.85" y="125.46" width="31.96" height="7.13"/><path class="cls-6" d="M324.36,129.1a2.1,2.1,0,0,1-.05-.43,11.84,11.84,0,0,0-.09-1.26,8,8,0,0,0-.06-.93,8.49,8.49,0,0,0-.18-1.11,19.71,19.71,0,0,0-.56-2.75,25.23,25.23,0,0,0-3-7,26.41,26.41,0,0,0-31.72-11.25A24.16,24.16,0,0,0,282,108a30.28,30.28,0,0,0-3,2.54,29.09,29.09,0,0,0-2.59,3.06,25.2,25.2,0,0,0-3.76,7.26,28,28,0,0,0-1.36,8.32,28.29,28.29,0,0,0,1.35,8.32,25.48,25.48,0,0,0,3.77,7.26,23.67,23.67,0,0,0,5.58,5.6,26.23,26.23,0,0,0,3.24,2.08,26.62,26.62,0,0,0,35.2-9.82,25.23,25.23,0,0,0,3-7,19.71,19.71,0,0,0,.56-2.75c.06-.4.14-.77.18-1.11s0-.65.06-.93q.06-.79.09-1.26a2.1,2.1,0,0,1,0-.43,3.09,3.09,0,0,1,0,.43v2.21a10.55,10.55,0,0,1-.15,1.12,17.34,17.34,0,0,1-.52,2.77,25,25,0,0,1-2.9,7.15,26.84,26.84,0,0,1-18.05,12.72,27.41,27.41,0,0,1-17.63-2.67,28.48,28.48,0,0,1-3.3-2.12,29.09,29.09,0,0,1-3.06-2.59,31.21,31.21,0,0,1-2.64-3.11,26.11,26.11,0,0,1-3.86-7.42,26.59,26.59,0,0,1,0-17,25.65,25.65,0,0,1,3.85-7.41,31.21,31.21,0,0,1,2.64-3.11,29.09,29.09,0,0,1,3.06-2.59,28.48,28.48,0,0,1,3.3-2.12,28,28,0,0,1,3.51-1.53,26.75,26.75,0,0,1,32.17,11.58,25,25,0,0,1,2.9,7.15,17.34,17.34,0,0,1,.52,2.77c.05.41.12.78.15,1.12v2.21A3.25,3.25,0,0,1,324.36,129.1Z"/></g><g id="Character_3" data-name="Character 3"><path class="cls-6" d="M653.26,349.19s31.61-7.53,32.65-8.86l-26-66.95a49,49,0,0,0-30.32-29.55,85.92,85.92,0,0,0-30.7-4.74L555,236.76a87,87,0,0,0-34.62,9.59,69.86,69.86,0,0,0-32.5,35.82l-19.67,49.16,49.63,10.38,1.89,52.8-7.49,72.87H649.32l-1-115.5h0Z"/><g class="cls-7"><path class="cls-4" d="M680.5,331.58c0,.15-8.15,2.83-18.31,6s-18.43,5.58-18.48,5.43,8.15-2.82,18.31-6S680.46,331.43,680.5,331.58Z"/></g><path class="cls-8" d="M537.11,284.51a6.78,6.78,0,0,1-.84-1.15c-.5-.76-1.27-1.84-2.26-3.13a55.2,55.2,0,0,0-3.72-4.36,52.91,52.91,0,0,0-10.88-8.78,56.18,56.18,0,0,0-5-2.72c-1.47-.7-2.69-1.22-3.54-1.55a6.88,6.88,0,0,1-1.3-.58,6.47,6.47,0,0,1,1.37.38,34.08,34.08,0,0,1,3.64,1.39,49.82,49.82,0,0,1,5.14,2.64,47.1,47.1,0,0,1,11,8.84,49,49,0,0,1,3.67,4.47,33.06,33.06,0,0,1,2.12,3.26A6.91,6.91,0,0,1,537.11,284.51Z"/><path class="cls-8" d="M530.64,300.49c.15,0-1.38,16.15-3.42,36s-3.82,36-4,35.95,1.38-16.13,3.42-36S530.48,300.48,530.64,300.49Z"/><path class="cls-8" d="M638.54,270.61a30.74,30.74,0,0,1-.71-3.27,56.71,56.71,0,0,0-5.41-15.09,28.2,28.2,0,0,1-1.53-3,5.5,5.5,0,0,1,.56.71c.33.48.79,1.18,1.32,2.08a44.26,44.26,0,0,1,3.41,7.36,45.32,45.32,0,0,1,2.05,7.85c.16,1,.26,1.86.3,2.44A2.84,2.84,0,0,1,638.54,270.61Z"/><path class="cls-8" d="M641.29,327a8.56,8.56,0,0,1-.27-1.58c-.14-1-.3-2.51-.48-4.35-.36-3.68-.73-8.77-.93-14.4s-.18-10.74-.08-14.43c.05-1.85.11-3.34.17-4.37a10.7,10.7,0,0,1,.15-1.6,8.65,8.65,0,0,1,.07,1.61v4.36c0,3.69,0,8.79.24,14.41s.51,10.71.77,14.39c.12,1.76.22,3.22.3,4.36A10.7,10.7,0,0,1,641.29,327Z"/><path class="cls-4" d="M574.93,317.56a225.44,225.44,0,0,1-34.57-.64v4.49h34.57Z"/><g class="cls-7"><path class="cls-4" d="M609.31,242.89a3.14,3.14,0,0,1,.13.68c.08.49.18,1.15.31,2,.22,1.75.52,4.31.77,7.55.51,6.49,1,15.72,1.12,26.61v.41l-.37-.18c-6.9-3.35-14.62-7-22.67-11L549.33,249.3l-11.88-6-3.21-1.66-.83-.44a1.24,1.24,0,0,1-.27-.17,1.88,1.88,0,0,1,.3.12l.85.39,3.27,1.57,12,5.85,39.35,19.51c8,4,15.75,7.68,22.63,11.06l-.37.23c-.12-10.87-.49-20.1-.92-26.59-.21-3.24-.46-5.8-.63-7.55-.09-.85-.16-1.51-.22-2A4.47,4.47,0,0,1,609.31,242.89Z"/></g><g class="cls-7"><path class="cls-4" d="M526.8,336.19a2.27,2.27,0,0,1-.58-.1l-1.61-.39-5.9-1.5c-5-1.28-11.88-3-19.51-4.87s-14.56-3.44-19.58-4.58l-5.94-1.37-1.61-.39a1.76,1.76,0,0,1-.55-.17,1.85,1.85,0,0,1,.57.06l1.63.29c1.42.26,3.46.67,6,1.19,5,1,12,2.58,19.63,4.42s14.52,3.66,19.48,5c2.48.68,4.48,1.26,5.86,1.67l1.58.49A2.14,2.14,0,0,1,526.8,336.19Z"/></g><path class="cls-8" d="M603.28,234.71c.05-.16,3,1.4,5.83,5.64s5.46,10.79,6.95,18.33a74.7,74.7,0,0,1,1.26,10.75c0,1.66.07,3.24,0,4.72s-.1,2.85-.23,4.1-.25,2.36-.36,3.37-.3,1.83-.43,2.52a7.73,7.73,0,0,1-.51,2.12,8.83,8.83,0,0,1,.08-2.18c.07-.72.15-1.56.23-2.53s.13-2.12.2-3.35,0-2.6.09-4.06-.08-3-.13-4.66A83.67,83.67,0,0,0,615,258.9a58.28,58.28,0,0,0-6.51-18.12,25.38,25.38,0,0,0-3.61-4.58A20.45,20.45,0,0,1,603.28,234.71Z"/><path class="cls-8" d="M554.18,235a24.17,24.17,0,0,1-2.29,3.29,45.6,45.6,0,0,0-5.08,9.49A65.4,65.4,0,0,0,543,263.32c-.78,6-1.12,12.69-1.56,19.69s-.38,13.69-.39,19.77,0,11.57,0,16.19-.11,8.35-.25,10.93a17.35,17.35,0,0,1-.4,4,19.13,19.13,0,0,1-.26-4c-.07-2.63-.16-6.34-.28-10.91s-.27-10.09-.35-16.19-.11-12.81.26-19.87.82-13.73,1.7-19.81a61.44,61.44,0,0,1,4.22-15.76,39.5,39.5,0,0,1,5.66-9.44A14.77,14.77,0,0,1,554.18,235Z"/><path class="cls-8" d="M626.79,325.31a21.33,21.33,0,0,1-.22-3.57c-.06-2.3-.12-5.62-.16-9.73,0-2.06,0-4.31-.06-6.72s0-5-.14-7.66a12.63,12.63,0,0,0-2.76-7.54,10.37,10.37,0,0,0-7.61-3.6,11.88,11.88,0,0,0-8,3.08,13.74,13.74,0,0,0-4,7,69.33,69.33,0,0,0-1.35,7.53c-.35,2.38-.73,4.6-1,6.64-.66,4.05-1.2,7.33-1.6,9.59a24.76,24.76,0,0,1-.74,3.5,21.3,21.3,0,0,1,.3-3.56c.27-2.28.7-5.58,1.25-9.65.28-2,.59-4.27.91-6.65a67.21,67.21,0,0,1,1.28-7.66,14.53,14.53,0,0,1,4.29-7.57,13,13,0,0,1,8.71-3.39,11.46,11.46,0,0,1,8.43,4,13.65,13.65,0,0,1,3,8.19c.17,2.77,0,5.33,0,7.75s-.06,4.65-.08,6.71c-.06,4.11-.13,7.43-.2,9.73A22.6,22.6,0,0,1,626.79,325.31Z"/><path class="cls-8" d="M616.37,275.92c-.35,3.79-1.57,8-4.19,10.78a15.06,15.06,0,0,1,7,.13c-1.64-3.28-1.91-7.24-1.86-10.91"/><path class="cls-8" d="M626.83,300.49c-.21,0-.33-1.81-1.72-4.28a13.18,13.18,0,0,0-3.13-3.76,11.78,11.78,0,0,0-5.32-2.53,11.54,11.54,0,0,0-5.85.59,13,13,0,0,0-4.18,2.53c-2.1,1.9-2.79,3.62-3,3.52s.32-1.91,2.42-4.1a12.49,12.49,0,0,1,4.36-2.92,11.84,11.84,0,0,1,6.42-.72,12,12,0,0,1,5.79,2.85,12.94,12.94,0,0,1,3.17,4.17C627.1,298.58,626.93,300.51,626.83,300.49Z"/><path class="cls-9" d="M655.73,422.84c6.43,0,12.17-4.63,15.2-10.31s3.8-12.26,4.1-18.69a151.77,151.77,0,0,0-6.18-50.44l-28.19,4.93,7.67,75.91Z"/><polygon class="cls-8" points="541.72 432.3 633.49 428.95 655.75 321.41 559.09 326.78 541.72 432.3"/><path class="cls-10" d="M589,324.93l1.38-2.74,7.33-.54s1.86-4.8,12.32-5.29c9.39-.44,9.77,4.28,9.77,4.28h5.06v2.3Z"/><path class="cls-9" d="M640.13,397.64l7-2a8.59,8.59,0,0,1,4-.18h0a8.61,8.61,0,0,1,4.31,2.28c2.31,2.27,6,6,6.55,7.14.77,1.63.77,4.46,0,5.5s1.7,6.39,1.39,8.18a10.93,10.93,0,0,1-1.39,4.31c-.63.75,0,3.29-1.56,5.22a24.78,24.78,0,0,1-2.95,3.11s-19.11.89-21,0-5.13-4.31-5.13-4.31-1.71-3.12.93-3.42l-10.87-4.17a2.57,2.57,0,0,1-1.58-3.26,1.76,1.76,0,0,1,1-1.05s-4.88-1.54-6-2c-2.26-1-3.11-6.25,1.56-5.58,2.46.36,5.8,1.08,5.8,1.08s-1.78-2.9.71-4.63c1.51-1.05,8.32.23,8.32.23l8.94-6.38Z"/><path class="cls-11" d="M642.55,426.32a16.18,16.18,0,0,1-5.65-.84c-3.07-.85-5.29-2.22-5.21-2.36s2.35,1,5.37,1.81S642.57,426.16,642.55,426.32Z"/><path class="cls-11" d="M638.4,419.53A152.1,152.1,0,0,1,620.79,415a72.61,72.61,0,0,1,8.88,2A75.72,75.72,0,0,1,638.4,419.53Z"/><path class="cls-11" d="M640.66,412.77a86,86,0,0,1-9.55-1.95,84.77,84.77,0,0,1-9.42-2.49,164.68,164.68,0,0,1,19,4.44Z"/><path class="cls-11" d="M647.73,404.06a11.65,11.65,0,0,1-2.45.78l-2.7.7-1.6.4a6,6,0,0,1-1.84.17,10,10,0,0,1-1.79-.29l-1.6-.37L633,404.8a11.16,11.16,0,0,1-2.47-.74,12.94,12.94,0,0,1,2.55.35l2.75.54a31,31,0,0,0,3.31.6,12.46,12.46,0,0,0,3.27-.51l2.73-.58A11.94,11.94,0,0,1,647.73,404.06Z"/><path class="cls-11" d="M649,407.72c.06,0,.31.2.52.71a3.18,3.18,0,0,1,.08,2.13,3.24,3.24,0,0,1-1.28,1.72c-.47.3-.81.34-.84.28a4.91,4.91,0,0,0,1.58-2.16A6.37,6.37,0,0,0,649,407.72Z"/><path class="cls-11" d="M648.56,415.11c.13-.07.57.7.51,1.75s-.57,1.76-.7,1.69.09-.81.13-1.72S648.41,415.16,648.56,415.11Z"/><path class="cls-11" d="M648.67,423.12c.14-.05.43.47.3,1.15s-.6,1.05-.72.94.06-.52.16-1S648.52,423.17,648.67,423.12Z"/><path class="cls-11" d="M650.75,403.62a5.63,5.63,0,0,1-1.83-.09l-2-.26a7.36,7.36,0,0,0-2.34-.11,5.91,5.91,0,0,0-2.08.93c-.59.41-1.12.85-1.62,1.15a3,3,0,0,1-1.76.6c0-.09.66-.28,1.54-.93a9.32,9.32,0,0,1,3.85-2.31,7.17,7.17,0,0,1,1.31,0,6.93,6.93,0,0,1,1.18.19l2,.37A5.66,5.66,0,0,1,650.75,403.62Z"/><path class="cls-11" d="M661.79,423.2a9.3,9.3,0,0,1,.49-1.37,9.39,9.39,0,0,0,.36-6.46c-.22-.95-.66-1.9-.9-3a9.76,9.76,0,0,1,.23-3.53,6.25,6.25,0,0,0-.62-3.48,16.42,16.42,0,0,0-2-3.08c-.74-.94-1.47-1.85-2.19-2.67a12.79,12.79,0,0,0-4.52-3.54,7.39,7.39,0,0,0-3.8-.57c-.92.12-1.39.37-1.41.31s.11-.08.33-.2a5.86,5.86,0,0,1,1-.33,7.2,7.2,0,0,1,4,.42,12.83,12.83,0,0,1,4.75,3.56c.75.83,1.49,1.74,2.25,2.68a17.48,17.48,0,0,1,2.06,3.18,6.76,6.76,0,0,1,.66,3.78,9.57,9.57,0,0,0-.27,3.37c.2,1,.63,2,.84,3a10.74,10.74,0,0,1,.36,2.77,10.13,10.13,0,0,1-1,3.89A5.53,5.53,0,0,1,661.79,423.2Z"/><path class="cls-9" d="M597.55,370,522.2,382l3.34-39.32-41.9-8.1-5.1,58.23-.88,13.34a26,26,0,0,0,10.94,23h0a26.06,26.06,0,0,0,23.13,3.51l16.19-5.28,79-28.09"/><path class="cls-9" d="M643.14,361.9a2.12,2.12,0,0,0-1.7-2.48,2.28,2.28,0,0,0-.45,0c-4.24,0-15.71.05-19.76,1.19-5,1.43-23.68,9.44-23.68,9.44l7.91,29.21,28.66.31s10.46-4.81,10.59-6.89a33.9,33.9,0,0,0-.26-3.9l3.16-1.7c4.71-3,1.69-8.72,1.69-8.72s3.24-1.81,3.41-5.09a5.12,5.12,0,0,0-2.53-4.84s1.3-4.62-1.11-5.86-6.5.35-6.5.35A1.67,1.67,0,0,0,643.14,361.9Z"/><path class="cls-11" d="M644.79,362.38a3.39,3.39,0,0,1-.88.3,23.13,23.13,0,0,1-2.47.54c-2.11.37-5,.69-8.27,1A68,68,0,0,0,625,365.5c-2.06.48-3.21,1.12-3.26,1s.26-.21.78-.51a14.59,14.59,0,0,1,2.38-.91,48.57,48.57,0,0,1,8.22-1.42c3.24-.35,6.16-.6,8.27-.88A24.9,24.9,0,0,1,644.79,362.38Z"/><path class="cls-11" d="M650.18,368.22a6.47,6.47,0,0,1-2,1,30.58,30.58,0,0,1-5.22,1.52c-2.08.44-4,.72-5.36.9a8.88,8.88,0,0,1-2.24.17c0-.18,3.35-.78,7.48-1.62,2.06-.43,3.9-.92,5.21-1.34A13,13,0,0,1,650.18,368.22Z"/><path class="cls-11" d="M649.36,378.38a22.2,22.2,0,0,1-6.13,2.08,21.89,21.89,0,0,1-6.44.76c0-.16,2.85-.52,6.31-1.31S649.31,378.22,649.36,378.38Z"/><path class="cls-11" d="M647.61,387a21.47,21.47,0,0,1-9.69,2.34,602.56,602.56,0,0,0,9.69-2.34Z"/><path class="cls-11" d="M632.67,381.86c0,.07-.29.26-.88.31a3.3,3.3,0,0,1-3.44-2.45c-.14-.56-.07-.92,0-.92a4.75,4.75,0,0,0,1.6,2.31A5.79,5.79,0,0,0,632.67,381.86Z"/><path class="cls-11" d="M632.07,390.92c0,.15-1.12.22-2.1-.66s-1.05-2-.9-2,.44.86,1.27,1.59S632.09,390.75,632.07,390.92Z"/><path class="cls-11" d="M628.75,372.52c.06.15-.73.4-1.46-.15s-.71-1.39-.55-1.37.35.53.89.92S628.73,372.37,628.75,372.52Z"/><path class="cls-11" d="M597.55,370l.22-.13.68-.31,2.66-1.18c2.33-1,5.72-2.47,10-4.22,2.14-.87,4.5-1.83,7.08-2.79a28.33,28.33,0,0,1,4.11-1.28c1.47-.27,3-.43,4.56-.56,3.13-.24,6.45-.35,9.91-.4h4a2.84,2.84,0,0,1,1.43.3,2.29,2.29,0,0,1,1.23,2.6.84.84,0,0,1-.34.38,2.07,2.07,0,0,1-.32.19,5.51,5.51,0,0,1-.65.31,10.93,10.93,0,0,1-1.36.47.27.27,0,0,1-.33-.17v0a.28.28,0,0,1,.19-.34,28.76,28.76,0,0,1,3.57-.79,12.62,12.62,0,0,1,3.78-.13,3,3,0,0,1,2.77,2.62,9.36,9.36,0,0,1-.25,3.94l-.14-.33a5.2,5.2,0,0,1,1.59,1.4,5.65,5.65,0,0,1,.82,5.11,7.61,7.61,0,0,1-3.28,3.92l.11-.37a9,9,0,0,1,.91,5,5.79,5.79,0,0,1-2.7,4.09h0L644.58,389l.14-.26c.08.75.15,1.5.2,2.25,0,.37.05.74.06,1.12v.57a1.6,1.6,0,0,1-.23.63,7.27,7.27,0,0,1-1.63,1.55c-.59.43-1.19.81-1.79,1.18a72.83,72.83,0,0,1-7.11,3.73h-.1l-20.85-.32-5.77-.13H606a2.26,2.26,0,0,1-.52,0,2.26,2.26,0,0,1,.52,0h7.28l20.86.12H634a76.88,76.88,0,0,0,7-3.73c.59-.37,1.18-.75,1.75-1.17A6.18,6.18,0,0,0,644.3,393a1.06,1.06,0,0,0,.16-.38v-.53a6.82,6.82,0,0,0-.06-1.1,21.07,21.07,0,0,0-.21-2.22.3.3,0,0,1,.14-.27l3.15-1.69h0a5.2,5.2,0,0,0,2.44-3.71,8.54,8.54,0,0,0-.86-4.66.29.29,0,0,1,.12-.37,7,7,0,0,0,3-3.6,5.08,5.08,0,0,0-.74-4.6,4.67,4.67,0,0,0-1.39-1.23.3.3,0,0,1-.15-.33,8.8,8.8,0,0,0,.24-3.68,2.4,2.4,0,0,0-2.31-2.18,12.78,12.78,0,0,0-3.6.12,30,30,0,0,0-3.5.78l-.14-.53a11.2,11.2,0,0,0,1.27-.44c.21-.09.41-.18.6-.28s.38-.28.45-.26a2.23,2.23,0,0,0-.18-1.14,2.07,2.07,0,0,0-.83-.83,2.19,2.19,0,0,0-1.18-.24h-4c-3.46,0-6.77.14-9.89.36a45.26,45.26,0,0,0-4.5.53,27.51,27.51,0,0,0-4.06,1.23c-2.58.94-5,1.87-7.09,2.72l-10,4.07-2.7,1.09-.7.28Z"/><path class="cls-11" d="M522.5,381.9c.1.16-3,1.64-5.57,4.8s-3.54,6.43-3.71,6.36a5.85,5.85,0,0,1,.56-2.13,16.82,16.82,0,0,1,6.73-8.09A6.07,6.07,0,0,1,522.5,381.9Z"/><path class="cls-9" d="M620.9,148.9A38.08,38.08,0,0,0,583,113.82h-2C559.8,115,548.94,133.74,550.72,155l3.67,85a3.82,3.82,0,0,0,2.21,3.31l47.7,22.39-1.47-44.63s20.44-3.14,20.73-23.57C623.7,187.64,622.34,167.3,620.9,148.9Z"/><path class="cls-11" d="M603,221a49.66,49.66,0,0,1-26.75-7.89s6.26,14.71,26.65,12.91Z"/><path class="cls-8" d="M613.65,161.59a2.92,2.92,0,0,1-2.82,2.94,2.81,2.81,0,0,1-3-2.59v-.05a2.92,2.92,0,0,1,2.82-2.94,2.79,2.79,0,0,1,3,2.57Z"/><path class="cls-8" d="M616.48,158.89c-.36.38-2.56-1.26-5.7-1.26s-5.45,1.57-5.79,1.18c-.16-.17.21-.85,1.21-1.58a8,8,0,0,1,4.63-1.42,7.72,7.72,0,0,1,4.54,1.48C616.34,158,616.66,158.72,616.48,158.89Z"/><path class="cls-8" d="M582.79,162.54a2.92,2.92,0,0,1-2.82,2.94,2.79,2.79,0,0,1-3-2.57v-.07a2.92,2.92,0,0,1,2.82-2.94,2.79,2.79,0,0,1,3,2.57Z"/><path class="cls-8" d="M585.63,159.41c-.37.38-2.58-1.26-5.71-1.26s-5.45,1.57-5.79,1.18c-.16-.17.2-.85,1.21-1.58a8,8,0,0,1,4.63-1.42,7.72,7.72,0,0,1,4.54,1.48C585.48,158.55,585.8,159.24,585.63,159.41Z"/><path class="cls-8" d="M597,182.72c0-.18,1.94-.52,5.1-.91.8-.08,1.56-.24,1.7-.79a4.12,4.12,0,0,0-.53-2.38c-.75-1.94-1.54-4-2.36-6.11-3.27-8.69-5.64-15.84-5.29-16s3.29,6.81,6.56,15.51c.79,2.15,1.55,4.19,2.26,6.15a4.62,4.62,0,0,1,.41,3.14,2,2,0,0,1-1.32,1.17,5.19,5.19,0,0,1-1.36.19C599,182.88,597,182.89,597,182.72Z"/><path class="cls-8" d="M587.73,184.87c.51,0,.51,3.38,3.42,5.8s6.54,2.06,6.56,2.54c0,.21-.81.66-2.34.69a8.41,8.41,0,0,1-5.48-1.92,7.34,7.34,0,0,1-2.65-4.86C587.11,185.69,587.49,184.85,587.73,184.87Z"/><path class="cls-8" d="M586.46,147.11c-.31.85-3.44.44-7.13.88s-6.66,1.43-7.15.67c-.22-.37.3-1.17,1.5-2a12,12,0,0,1,5.31-1.84,11.76,11.76,0,0,1,5.57.67C585.92,146,586.6,146.71,586.46,147.11Z"/><path class="cls-8" d="M615.35,149.8c-.55.71-2.72,0-5.32-.07s-4.8.47-5.3-.28c-.23-.36.12-1.08,1.09-1.75a7.7,7.7,0,0,1,8.56.28C615.29,148.72,615.59,149.45,615.35,149.8Z"/><path class="cls-9" d="M553.78,170.08c-.35-.15-14-4.18-13.61,9.79s14.35,10.67,14.37,10.27S553.78,170.08,553.78,170.08Z"/><path class="cls-11" d="M551.34,185c-.06,0-.24.18-.64.38a2.39,2.39,0,0,1-1.82.09c-1.49-.5-2.8-2.8-3-5.32a8,8,0,0,1,.58-3.5,2.82,2.82,0,0,1,1.77-1.92,1.23,1.23,0,0,1,1.46.62c.2.39.12.67.19.69s.3-.24.17-.82a1.6,1.6,0,0,0-.58-.86,1.83,1.83,0,0,0-1.36-.31,3.43,3.43,0,0,0-2.47,2.24,8.26,8.26,0,0,0-.73,3.92c.17,2.81,1.69,5.4,3.73,5.92a2.6,2.6,0,0,0,2.21-.43C551.33,185.31,551.39,185,551.34,185Z"/><path class="cls-8" d="M562.94,128.56l58.24,1.29a26.36,26.36,0,0,0-8.56-9.9,45.49,45.49,0,0,0-26.37-9.49c-9.5-.17-28.83,11.4-35.72,18-5.5,5.24-5.47,9.78-5.47,9.78-.87,7.55,3.36,16.13,5,23.55.86,3.82,2.54,15.39,2.54,15.39h0c3.21,0,4.4-2.56,3.91-5.74L556,159s10.91-7.76,5.74-22C560.86,135.86,559.09,130.68,562.94,128.56Z"/><path class="cls-11" d="M575.17,172.74A.38.38,0,0,1,575,172a.36.36,0,0,1,.41.3h0A.37.37,0,0,1,575.17,172.74Z"/><path class="cls-11" d="M581.17,171.39a.42.42,0,0,1-.43-.36.39.39,0,0,1,.26-.49h0a.39.39,0,0,1,.42.36h0A.39.39,0,0,1,581.17,171.39Z"/><path class="cls-11" d="M585.21,171.3c-.19,0-.38-.21-.42-.52s.09-.58.28-.61.37.21.41.52S585.4,171.27,585.21,171.3Z"/><path class="cls-11" d="M578.11,176.51c-.19,0-.35-.1-.35-.22s.16-.23.35-.23.34.1.34.23S578.3,176.51,578.11,176.51Z"/><path class="cls-11" d="M583.61,175.24a.38.38,0,0,1-.38-.36h0a.37.37,0,1,1,.38.36Z"/><path class="cls-11" d="M612.25,171.88a.37.37,0,0,1-.42-.31.36.36,0,0,1,.26-.45.39.39,0,0,1,.16.76Z"/><path class="cls-11" d="M616.33,171.52a.38.38,0,0,1-.38-.4h0a.4.4,0,0,1,.3-.47.42.42,0,0,1,.39.4A.41.41,0,0,1,616.33,171.52Z"/><path class="cls-11" d="M608.64,172a.34.34,0,0,1-.4-.23.32.32,0,0,1,.26-.37h0a.34.34,0,0,1,.4.23A.33.33,0,0,1,608.64,172Z"/><path class="cls-11" d="M611.66,176.07a.4.4,0,0,1-.32-.73.35.35,0,0,1,.46.21v0A.37.37,0,0,1,611.66,176.07Z"/><path class="cls-11" d="M615.15,175.38a.34.34,0,0,1-.26-.37.35.35,0,0,1,.67.18A.31.31,0,0,1,615.15,175.38Z"/><path class="cls-8" d="M550.15,129.21a17.21,17.21,0,0,1,17.21-21.41c2.72.11,5.42.88,8.13.59,5-.55,8.92-4.59,13.59-6.55A17.76,17.76,0,0,1,610,108.12c1.77,2.64,2.93,5.91,5.64,7.58,2.35,1.44,5.31,1.32,8,2.11,5.33,1.61,9,7.27,8.7,12.83a15.27,15.27,0,0,1-9.3,12.84A18.64,18.64,0,0,1,607,142.34c-4.4-2.45-8.33-6.62-13.36-6.47-5.2.15-9.75,5.06-14.86,4-2.68-.54-4.74-2.6-6.7-4.5s-4.22-3.84-7-4-4.14,3.59-3.17,6.14l-11.74-8.35"/><path class="cls-10" d="M620.05,122.46a1.24,1.24,0,0,1-.1.2,6.32,6.32,0,0,1-.33.56,9.73,9.73,0,0,1-1.67,1.9,10.12,10.12,0,0,1-3.47,2,9.78,9.78,0,0,1-5.28.32,10.44,10.44,0,0,1-5.57-3.17c-1.6-1.75-2.54-4.09-4-6.14a7.55,7.55,0,0,0-6.68-3.4,8.75,8.75,0,0,0-4,1.07,7.46,7.46,0,0,0-2.92,3c-.7,1.28-1.21,2.69-2,3.93A4.83,4.83,0,0,1,580.3,125a7.18,7.18,0,0,1-4.07-1.17,14.88,14.88,0,0,1-3.09-2.56c-1.8-1.82-3.57-3.63-5.78-4.12a7.38,7.38,0,0,0-5.85,1.38,10.1,10.1,0,0,0-3.21,4,16.32,16.32,0,0,0-1.2,3.74c-.22,1.07-.32,1.91-.39,2.48a4.14,4.14,0,0,1-.12.86.81.81,0,0,1,0-.22v-.65a19.29,19.29,0,0,1,.29-2.51A15.48,15.48,0,0,1,558,122.4a10.26,10.26,0,0,1,3.26-4.17,7.7,7.7,0,0,1,6.19-1.51c2.39.52,4.24,2.41,6,4.2a15.12,15.12,0,0,0,3,2.47,6.74,6.74,0,0,0,3.75,1.08,4.26,4.26,0,0,0,3.31-2c.79-1.17,1.29-2.56,2-3.89a7.91,7.91,0,0,1,3.14-3.22,9.18,9.18,0,0,1,4.22-1.13,8.94,8.94,0,0,1,4.13.92,8.83,8.83,0,0,1,3,2.73c1.52,2.14,2.43,4.45,3.94,6.13a10,10,0,0,0,5.31,3.09,9.61,9.61,0,0,0,5.1-.22A10.31,10.31,0,0,0,617.8,125,13.61,13.61,0,0,0,620.05,122.46Z"/><path class="cls-10" d="M630.6,122.66a3.13,3.13,0,0,1,.24,1.13,9.13,9.13,0,0,1-.29,3.12,11,11,0,0,1-2.19,4.11,12.74,12.74,0,0,1-4.6,3.35,19.07,19.07,0,0,1-10.16,1.15,26.12,26.12,0,0,1-3.05-.61,4.23,4.23,0,0,1-1.09-.36c0-.1,1.6.3,4.18.57a19.66,19.66,0,0,0,9.89-1.27,12.61,12.61,0,0,0,4.44-3.17,10.87,10.87,0,0,0,2.19-3.89A12,12,0,0,0,630.6,122.66Z"/><path class="cls-2" d="M531.21,347.68a11.82,11.82,0,0,0,2.45,6.06c1.24,1.62,3.78,3.21,5.83,3.09a8.88,8.88,0,0,0,7.85-3.94c2.49-4,3.1-12.2,1.1-17.07-1.37-3.35-4.45-6.46-8.07-6.55-4.75-.11-7.73,3.32-8.74,6.8"/><path class="cls-8" d="M531.63,336.07a7.22,7.22,0,0,1,.87-2.33,9.51,9.51,0,0,1,1.79-2.34,8.36,8.36,0,0,1,5.62-2.33,6.89,6.89,0,0,1,2.47.32,9.77,9.77,0,0,1,4.41,3.16,12.78,12.78,0,0,1,2.6,5.41,23.3,23.3,0,0,1,.48,6.4c-.22,3.38-.88,6.74-2.76,9.32a8.25,8.25,0,0,1-3.58,2.7,9.71,9.71,0,0,1-4.06.68h0a6.18,6.18,0,0,1-2.91-.72,10.09,10.09,0,0,1-2.19-1.52,11.25,11.25,0,0,1-2.38-3.55,10,10,0,0,1-.75-2.63,5.69,5.69,0,0,1-.07-.71.53.53,0,0,1,0-.25,14.45,14.45,0,0,0,1,3.48,10.74,10.74,0,0,0,2.4,3.38,9.18,9.18,0,0,0,2.12,1.43,5.89,5.89,0,0,0,2.7.63h0a8.61,8.61,0,0,0,7.18-3.25c1.74-2.41,2.41-5.72,2.62-9,.23-4.27-.49-8.57-2.92-11.44a9.28,9.28,0,0,0-4.15-3,6.32,6.32,0,0,0-2.32-.34,8.12,8.12,0,0,0-5.42,2.13,9.67,9.67,0,0,0-1.81,2.22A18.65,18.65,0,0,0,531.63,336.07Z"/><path class="cls-2" d="M528.68,347.9a11.75,11.75,0,0,0,2.45,6.05c1.25,1.62,3.79,3.21,5.83,3.1a8.9,8.9,0,0,0,7.85-3.94c2.49-4,3.1-12.2,1.11-17.07-1.38-3.35-4.46-6.47-8.08-6.55-4.75-.12-7.73,3.32-8.74,6.79"/><path class="cls-8" d="M529.1,336.28A7.15,7.15,0,0,1,530,334a9.42,9.42,0,0,1,1.78-2.33,8.24,8.24,0,0,1,3.36-2,8.6,8.6,0,0,1,2.26-.36,6.68,6.68,0,0,1,2.47.33,9.7,9.7,0,0,1,4.41,3.16,12.75,12.75,0,0,1,2.6,5.4,23.3,23.3,0,0,1,.48,6.4c-.22,3.38-.88,6.75-2.76,9.32a8.25,8.25,0,0,1-3.58,2.7,9.72,9.72,0,0,1-4.06.69h0a6.13,6.13,0,0,1-2.91-.73,9.17,9.17,0,0,1-2.18-1.52,11.11,11.11,0,0,1-2.39-3.55,10.9,10.9,0,0,1-.75-2.62,5.85,5.85,0,0,1-.07-.72,1,1,0,0,1,0-.24,14.49,14.49,0,0,0,1.05,3.47,11.24,11.24,0,0,0,2.4,3.39,9.82,9.82,0,0,0,2.12,1.42,5.74,5.74,0,0,0,2.7.64h0a8.68,8.68,0,0,0,7.18-3.25c1.74-2.41,2.41-5.72,2.62-9,.23-4.27-.49-8.58-2.92-11.44a9.33,9.33,0,0,0-4.15-3.05,6.53,6.53,0,0,0-2.32-.34,8.08,8.08,0,0,0-5.42,2.14,10.07,10.07,0,0,0-1.8,2.21A19.34,19.34,0,0,0,529.1,336.28Z"/><path class="cls-2" d="M533.26,335.07a5.56,5.56,0,0,0-5.8,3.34,9.61,9.61,0,0,0,0,7,8.7,8.7,0,0,0,1.8,3.17,4.75,4.75,0,0,0,3.22,1.57,5.6,5.6,0,0,0,4.46-2.64,10.07,10.07,0,0,0,1.52-8.28c-.49-1.87-1.87-3.79-3.81-3.84"/><path class="cls-8" d="M534.67,335.44h.43a3.07,3.07,0,0,1,1.17.4,5.77,5.77,0,0,1,2.47,3.72,10.23,10.23,0,0,1-.66,6.61,8.78,8.78,0,0,1-2.42,3.18,4.68,4.68,0,0,1-4.17,1,5.82,5.82,0,0,1-3.33-2.73,12.44,12.44,0,0,1-1.39-3.73,8.36,8.36,0,0,1,1.08-6.52,5.83,5.83,0,0,1,3.77-2.4,4.23,4.23,0,0,1,1.23,0c.28.06.42.1.41.12a7.78,7.78,0,0,0-1.6.1,5.71,5.71,0,0,0-3.48,2.41,8,8,0,0,0-.9,6.19,11.85,11.85,0,0,0,1.35,3.55,5.27,5.27,0,0,0,3,2.46,4.13,4.13,0,0,0,3.68-.89,8.05,8.05,0,0,0,2.29-3,10,10,0,0,0,.75-6.3,5.69,5.69,0,0,0-2.2-3.62A4.42,4.42,0,0,0,534.67,335.44Z"/><path class="cls-8" d="M538.71,352.82c-.08,0-.2-.34-.57-.77a4,4,0,0,0-1.85-1.18,10.86,10.86,0,0,0-2.26-.36c-.61,0-1-.09-1-.17s.37-.17,1-.22a6.28,6.28,0,0,1,2.44.21,3.6,3.6,0,0,1,2,1.49C538.8,352.39,538.78,352.81,538.71,352.82Z"/><path class="cls-8" d="M539.56,333.6c.05,0-.17.38-.67.78a5.43,5.43,0,0,1-4.76.86c-.61-.2-.93-.44-.9-.5a13.85,13.85,0,0,0,3.28.08A13.41,13.41,0,0,0,539.56,333.6Z"/></g><g id="Character_1" data-name="Character 1"><path class="cls-8" d="M242,144.7c.13-4.71-4.22-8.34-8.6-10.07s-9.25-2.37-13.15-5c-3.46-2.33-5.78-5.95-8.71-8.92A29,29,0,0,0,162.81,134c-1.69,6.7-.54,14.62,4.74,19.08,6.13,5.16,15.22,4,23.08,2.41s16.74-3.19,23.3,1.42c3.95,2.78,6.22,7.3,8.64,11.49s5.45,8.46,10,10,10.78-1.15,11-6"/><path class="cls-8" d="M241.67,147.28c-.52,3.94,2.34,7.47,5.18,10.26s6.05,5.73,6.55,9.68c.58,4.61-2.78,9.15-1.8,13.69.62,2.88,2.86,5.1,4.22,7.72a16.39,16.39,0,0,1,.83,12.09c-1.17,4-3,12.84-5.79,15.92-7.64,8.54-19.79,15.9-31,18.47s-22.75,2.58-34.18,1.87c-9.36-.57-20.12-.14-27.91-13-4-6.67-6-15.53-8.19-23-1.85-6.45-3.44-13.36-1.52-19.79,1.12-3.74,3.37-7.07,4.47-10.83,1.38-4.68.88-9.69,1.43-14.55a33.39,33.39,0,0,1,47.5-26.36"/><path class="cls-9" d="M158.49,163.45c.88-13.43,9.81-29.89,23.19-28.44l41.75,10.65a7.87,7.87,0,0,1,7,8L225.77,254.4l.28.06s-9.51,28.42-37.12,19.74c-5.48-1.72-8-7.71-9.06-13.87h-.29v-2.11a65.92,65.92,0,0,1-.16-13.83h0c-.08-8.13-.07-11.47-.07-11.39s-17.15-2.89-20.66-25.28C156.92,196.61,157.52,178.36,158.49,163.45Z"/><path class="cls-8" d="M165.22,176.94a2.87,2.87,0,0,0,2.76,2.9,2.73,2.73,0,0,0,3-2.46s0-.08,0-.12a2.87,2.87,0,0,0-2.76-2.91,2.73,2.73,0,0,0-3,2.46C165.23,176.86,165.22,176.9,165.22,176.94Z"/><path class="cls-8" d="M162.43,173c.35.37,2.53-1.23,5.62-1.21s5.35,1.56,5.69,1.18c.16-.16-.2-.84-1.18-1.56A7.91,7.91,0,0,0,168,170a7.64,7.64,0,0,0-4.47,1.44C162.58,172.11,162.25,172.78,162.43,173Z"/><path class="cls-8" d="M195.58,176.94a2.87,2.87,0,0,0,2.76,2.9,2.75,2.75,0,0,0,3-2.48.38.38,0,0,0,0-.1,2.87,2.87,0,0,0-2.76-2.91,2.75,2.75,0,0,0-3,2.48A.41.41,0,0,0,195.58,176.94Z"/><path class="cls-8" d="M192.79,173.59c.36.38,2.54-1.23,5.62-1.21s5.35,1.56,5.69,1.19c.16-.17-.19-.85-1.18-1.57a7.85,7.85,0,0,0-4.55-1.41,7.56,7.56,0,0,0-4.48,1.43C192.94,172.75,192.62,173.43,192.79,173.59Z"/><path class="cls-8" d="M181.53,196.48c0-.18-1.9-.51-5-.92-.78-.08-1.53-.24-1.66-.78a4,4,0,0,1,.53-2.34c.75-1.9,1.54-3.9,2.35-6,3.25-8.54,5.61-15.57,5.27-15.7s-3.27,6.7-6.53,15.24l-2.24,6a4.54,4.54,0,0,0-.42,3.09,2,2,0,0,0,1.3,1.16,5.41,5.41,0,0,0,1.33.19C179.58,196.63,181.52,196.65,181.53,196.48Z"/><path class="cls-11" d="M179.32,233a57,57,0,0,0,30-7.93s-7.57,15.47-30,13.33Z"/><path class="cls-11" d="M182.82,203.92a5.56,5.56,0,0,1,5-2,5.06,5.06,0,0,1,3.51,1.89,3.23,3.23,0,0,1,.24,3.68,3.75,3.75,0,0,1-4.06,1,11.75,11.75,0,0,1-3.94-2.37,3.8,3.8,0,0,1-.88-.91,1,1,0,0,1,0-1.15"/><path class="cls-8" d="M190.62,198.63c-.51,0-.52,3.33-3.4,5.7s-6.44,2-6.47,2.47c0,.21.8.65,2.31.69a8.22,8.22,0,0,0,5.4-1.87,7.3,7.3,0,0,0,2.63-4.77C191.22,199.45,190.85,198.61,190.62,198.63Z"/><path class="cls-8" d="M191.41,168.18c.31.84,3.39.45,7,.9s6.56,1.44,7,.68c.21-.36-.29-1.15-1.47-2a12.26,12.26,0,0,0-10.7-1.21C192,167.12,191.28,167.78,191.41,168.18Z"/><path class="cls-8" d="M163.58,164c.55.7,2.68,0,5.23,0s4.73.48,5.23-.25c.22-.35-.12-1.06-1.07-1.72a7.57,7.57,0,0,0-8.42.24C163.64,163,163.35,163.67,163.58,164Z"/><path class="cls-8" d="M239.06,219.3a19.85,19.85,0,0,1-23.64-22c.69-5.49,3.66-11.09,1.75-16.29-2.52-6.88-12.16-9-14.72-15.86-1.49-4-.15-8.66-1.84-12.57-1.58-3.68-5.45-5.79-9.22-7.15s-7.8-2.31-11-4.76-5.13-7.1-3.1-10.54a212.14,212.14,0,0,1,49,11.87c3.65,1.37,7.49,3,9.65,6.25,2.28,3.44,2.17,7.88,2,12q-1.41,30.15-2.81,60.29"/><path class="cls-10" d="M237.66,227a1.69,1.69,0,0,0,.36-.23l1-.76c.86-.68,2.13-1.69,3.7-3.07A40.1,40.1,0,0,0,248,217.4a20.74,20.74,0,0,0,4.18-9.21,14,14,0,0,0-2.88-11.78,46.11,46.11,0,0,0-5.22-4.45,12.24,12.24,0,0,1-4.07-5.55c-1.65-4.56-.92-9.84-1.56-15.24a30.27,30.27,0,0,0-6.34-15.43,21.1,21.1,0,0,0-6.64-5.42,41.74,41.74,0,0,0-7.83-2.65,18.3,18.3,0,0,1-6.88-3.38,27.5,27.5,0,0,1-5-5.5c-2.82-4-4.9-8.25-7.57-11.8a25.74,25.74,0,0,0-4.41-4.68,16.86,16.86,0,0,0-5.23-2.85c-3.62-1.23-7.43-.83-9.94,1a9.18,9.18,0,0,0-3.54,6.7,6.75,6.75,0,0,0,1.35,4.61,4,4,0,0,0,.91.87,1.41,1.41,0,0,0,.36.24,1.42,1.42,0,0,0-.29-.31,4.78,4.78,0,0,1-.82-.92,6.59,6.59,0,0,1-1.12-4.46,8.77,8.77,0,0,1,3.47-6.28c2.36-1.65,6-2,9.39-.78a16.06,16.06,0,0,1,5,2.78,24.51,24.51,0,0,1,4.23,4.58c2.6,3.49,4.64,7.73,7.48,11.83a28.25,28.25,0,0,0,5.15,5.71,19.14,19.14,0,0,0,7.19,3.58A40.55,40.55,0,0,1,225,151.2a19.83,19.83,0,0,1,6.33,5.18,29.46,29.46,0,0,1,6.15,14.92c.65,5.22-.11,10.58,1.66,15.43a13.05,13.05,0,0,0,4.37,5.91,46.3,46.3,0,0,1,5.16,4.32,13.34,13.34,0,0,1,2.81,11.12,20.32,20.32,0,0,1-3.94,9,41.34,41.34,0,0,1-5.08,5.58c-1.53,1.43-2.76,2.48-3.58,3.21A10.2,10.2,0,0,0,237.66,227Z"/><path class="cls-8" d="M241.75,229.78c4.6-4.45,12.46-.59,16.32,4.52s6.6,11.68,12.46,14.25,13.48.36,18.41,4.44c6.78,5.64,3,18.7,10.3,23.6,2.92,1.94,6.76,1.87,9.87,3.48,7.33,3.78,7.25,14.12,6.11,22.3-1.59,11.47-3.33,23.36-9.66,33.05S286.91,351.94,276,348.2c-10.53-3.59-15.94-15-20.22-25.23L238,280.34c-3.43-8.22-6.89-16.56-8-25.4s.39-18.38,6-25.29"/><path class="cls-6" d="M244.7,220c3.34-.4,5.89,3.7,5,6.95s-4,5.42-7.18,6.53a10.74,10.74,0,0,1-5.55.64,5.46,5.46,0,0,1-4.2-3.38,3.19,3.19,0,0,1,1.54-4.2c2.2-1.37,3.49-2.45,5.22-3.41,2.66-1.46,2.5-1.66,5.16-3.13"/><polygon class="cls-6" points="167.76 255.99 180.75 246.15 229.68 243.03 231.65 249.59 215.74 348.91 228.29 467.4 160.03 467.4 167.76 255.99"/><g class="cls-7"><path d="M220.16,425.36c-1.56-1.66-4.12-4-6.41-4-16.34-.36-33-2-49.38-2.35l-1.31,48.42c3.91-6.89,7.61-14.06,8.64-21.92.45-3.43,1-7.53,4.16-9,1.77-.84,3.85-.51,5.77-.13,5.9,1.17,11.77,2.69,17.78,3.07s12.29-.51,17.33-3.79a10.5,10.5,0,0,0,4.15-4.48A5.5,5.5,0,0,0,220.16,425.36Z"/></g><path class="cls-6" d="M178.35,258l-1.51-14.21a4.5,4.5,0,0,1,3.95-5h.12l45-4.07a2.12,2.12,0,0,1,2.31,1.93.57.57,0,0,1,0,.13l.51,16.89-13,22.14-13.41,4.26h-16.4L176.5,270Z"/><path class="cls-8" d="M222.13,248.29a13.72,13.72,0,0,1-1.8-.18,31,31,0,0,0-4.91-.08,48.85,48.85,0,0,0-7.21,1c-2.69.57-5.62,1.36-8.72,2.12a56.82,56.82,0,0,1-8.87,1.57,22.72,22.72,0,0,1-7.35-.49,15.4,15.4,0,0,1-4.59-1.91,10.41,10.41,0,0,1-1.09-.79c-.24-.2-.35-.31-.34-.33s.54.36,1.55.93a16.53,16.53,0,0,0,4.56,1.71,23.34,23.34,0,0,0,7.22.37,60.81,60.81,0,0,0,8.78-1.61c3.09-.75,6-1.53,8.74-2.07a44.72,44.72,0,0,1,7.3-.93,26.47,26.47,0,0,1,4.95.26c.58.1,1,.18,1.33.26A2.2,2.2,0,0,1,222.13,248.29Z"/><g class="cls-7"><path d="M179.42,250.53c-1.2,3.31-1.24,7.42,1.21,10,2,2.07,5.2,2.59,8,2a25.84,25.84,0,0,0,7.83-3.52c6.2-3.69,12.5-7.51,19.54-9.08a2.5,2.5,0,0,0,1.27-.52.84.84,0,0,0,0-1.19l0,0a1.22,1.22,0,0,0-.58-.17c-6.23-.63-12.42,1.14-18.53,2.51s-12.63,2.34-18.52.21"/></g><path class="cls-8" d="M188,238.38a4,4,0,0,0-1.54,1.47c-.71,1.14-.68,3.08-.62,5.18.12,4.2.81,7.56.65,7.59a6.9,6.9,0,0,1-.61-2.17,32.7,32.7,0,0,1-.6-5.41,25,25,0,0,1,.06-3,5.2,5.2,0,0,1,.78-2.39,3.08,3.08,0,0,1,1.27-1.13C187.79,238.34,188,238.35,188,238.38Z"/><path class="cls-8" d="M199.93,250.72c-.18,0,.23-3.11-.32-6.87s-1.77-6.63-1.6-6.7a6.55,6.55,0,0,1,.92,1.83,22,22,0,0,1,1.23,4.79,22.68,22.68,0,0,1,.15,4.94A6,6,0,0,1,199.93,250.72Z"/><path class="cls-8" d="M214.43,236a4.27,4.27,0,0,1,.86,1.68,11.63,11.63,0,0,1-.59,8.89,4.36,4.36,0,0,1-1.07,1.54c-.17-.08,1.49-2.5,1.69-6A18.89,18.89,0,0,0,214.43,236Z"/><path class="cls-3" d="M151.27,262.38s-15.35,10.29-19.39,28.86C128.71,305.85,120,383,120,383l-15.19,29.6,9.93,23.63h0a36.32,36.32,0,0,0,23.87-6.83l6.68-4.85,12.26-18.18Z"/><polygon class="cls-3" points="177.31 248.76 151.27 262.38 145.13 282.57 139.65 341.1 149.96 409.71 131.88 467.19 163.06 467.43 163.8 433.73 166.91 324.65 169.97 255.16 177.31 248.76"/><path class="cls-8" d="M164.7,339.69a6.07,6.07,0,0,1-.48-.82l-1.3-2.38c-.54-1.05-1.06-2.4-1.73-3.94-.33-.77-.59-1.63-.91-2.52s-.66-1.85-.92-2.87c-2.45-8.08-4.07-19.76-3.73-32.63,0-1,.07-2,.14-3v-.17l.16-.06,4.56-1.92-.07.47-4.55-3.65-.09-.08V286a40.15,40.15,0,0,1,2.07-13c1.15-3.81,2.41-7.09,3.5-9.79s2.06-4.8,2.75-6.24c.34-.71.61-1.26.8-1.63a4.29,4.29,0,0,1,.31-.55,2.63,2.63,0,0,1-.22.59c-.19.42-.43,1-.73,1.67-.63,1.45-1.54,3.58-2.59,6.29s-2.27,6-3.38,9.79a39.71,39.71,0,0,0-2,12.84l-.1-.18,4.56,3.64.36.29-.43.18-4.55,1.92.17-.23c-.07,1-.1,2-.14,2.94-.34,12.81,1.21,24.44,3.55,32.5.25,1,.58,2,.88,2.86s.55,1.76.86,2.53c.64,1.54,1.13,2.89,1.64,3.95l1.2,2.43A4.79,4.79,0,0,1,164.7,339.69Z"/><path class="cls-8" d="M144.27,380.67a6.36,6.36,0,0,1-.25-.85c-.15-.61-.36-1.43-.61-2.45s-.58-2.38-.88-3.91-.7-3.27-1-5.21-.7-4.06-1-6.35-.59-4.75-.87-7.34c-.46-5.18-.78-10.89-.78-16.89s.36-11.72.85-16.9c.28-2.59.53-5,.89-7.33s.67-4.42,1-6.35.71-3.68,1-5.21.62-2.83.9-3.9.46-1.84.62-2.45a8.29,8.29,0,0,1,.25-.85,5.25,5.25,0,0,1-.14.87l-.52,2.48c-.24,1.07-.52,2.38-.8,3.92s-.65,3.27-.94,5.21-.67,4-1,6.34-.57,4.74-.84,7.32c-.45,5.16-.77,10.86-.8,16.85s.3,11.68.74,16.85c.26,2.58.48,5,.81,7.31s.61,4.42.92,6.35.65,3.68.93,5.22.55,2.85.78,3.92.38,1.86.51,2.48A4.34,4.34,0,0,1,144.27,380.67Z"/><path class="cls-8" d="M151.32,433.35a11.74,11.74,0,0,1-1.27,2.62,42.84,42.84,0,0,1-8.87,10.83,11,11,0,0,1-2.32,1.75,21,21,0,0,1,2-2,63.46,63.46,0,0,0,4.72-5.12,59.15,59.15,0,0,0,4.08-5.62A20.38,20.38,0,0,1,151.32,433.35Z"/><path class="cls-3" d="M271,260.71a35.84,35.84,0,0,1,22,25.49c8.51,37.55,23.09,87.49,23.32,103.6.29,20.52-8.69,34.57-20.4,37.16-9.26,2.05-93.23-2.55-93.23-2.55l-3.92-31.28,68-10-9.31-52,9.21-72Z"/><path class="cls-3" d="M266.63,259l-18.8-7.68L228,239.74l-.12,3.4h0a20,20,0,0,1,2.36,13.78l-16.5,86,3.75,62.86,7.67,61.6H284.8L257.42,403l9.66-86.82Z"/><path class="cls-8" d="M284.05,427.48l-.41.06-1.2.12c-1.06.11-2.62.1-4.65.15-4,0-9.92-.09-17.22-.32-14.61-.49-35-1.47-57.92-2.8h-.24v-.23c-.46-3.73-1-7.66-1.46-11.65-.84-6.75-1.67-13.34-2.46-19.64v-.27h.27l51.92-7.54,15.24-2.17,4.1-.55,1.06-.14h.36l-.35.07-1.06.18-4.08.65-15.22,2.33-51.89,7.74.23-.31c.79,6.3,1.62,12.89,2.47,19.64.5,4,1,7.92,1.46,11.65l-.26-.25c23,1.35,43.3,2.4,57.9,3,7.3.29,13.17.46,17.21.5,2,0,3.59,0,4.65-.06l1.2-.06Z"/><path class="cls-8" d="M256.87,325.84a2.65,2.65,0,0,1,.15.57c.09.45.19,1,.33,1.67.28,1.53.66,3.61,1.12,6.15.92,5.26,2.16,12.41,3.54,20.3l3.39,20.34c.4,2.54.72,4.63,1,6.17.1.68.17,1.23.24,1.68a3,3,0,0,1,0,.6,2.91,2.91,0,0,1-.15-.58c-.09-.44-.21-1-.34-1.66-.29-1.53-.67-3.61-1.14-6.15-.94-5.19-2.2-12.37-3.56-20.3s-2.54-15.13-3.37-20.34c-.39-2.55-.71-4.64-.95-6.17-.09-.69-.16-1.24-.22-1.69A2.31,2.31,0,0,1,256.87,325.84Z"/><path class="cls-8" d="M236.66,245.8a1.8,1.8,0,0,1,.08.21,3,3,0,0,0,.17.63c.14.56.38,1.37.6,2.45a76.17,76.17,0,0,1,1.44,9.26,104,104,0,0,1,.35,14.12c-.18,5.37-.75,11.31-1.56,17.61v.2h-.19l-6.15,1.14.21-.38c.35.95.71,2,1,3,2,7.3,1.13,14.68-.7,20.86a65.08,65.08,0,0,1-7.22,15.55c-2.56,4.17-4.88,7.37-6.48,9.58l-1.86,2.53-.5.65a1,1,0,0,1-.19.21,1.16,1.16,0,0,1,.14-.24c.12-.19.27-.41.46-.69L218,340c1.54-2.26,3.81-5.49,6.32-9.66a66.39,66.39,0,0,0,7.07-15.5c1.77-6.12,2.61-13.4.65-20.56-.27-1-.63-2-1-3l-.12-.32.33-.06,6.15-1.13-.23.23c.82-6.28,1.41-12.2,1.63-17.55a110.11,110.11,0,0,0-.24-14.07,84.93,84.93,0,0,0-1.26-9.25c-.19-1.08-.4-1.9-.51-2.47,0-.25-.09-.46-.12-.64A.55.55,0,0,1,236.66,245.8Z"/><path class="cls-12" d="M236.66,334.06V320.33s.18-3.39-2.68-2.67-2.31,6.06-2.31,6.06-.54,20.85.71,20.68,1.73-1.79,1.73-1.79v-8Z"/><path class="cls-8" d="M248.52,334.91a47.52,47.52,0,0,1-7.35.28,47.6,47.6,0,0,1-7.36-.28,48.88,48.88,0,0,1,7.36-.28A48.79,48.79,0,0,1,248.52,334.91Z"/><path class="cls-8" d="M275.68,268.85a8.27,8.27,0,0,1-1.53.57,37.78,37.78,0,0,0-4.08,1.77,31.65,31.65,0,0,0-11,9.4,24,24,0,0,0-2.17,3.53,22.21,22.21,0,0,0-1.3,3.64,36.68,36.68,0,0,0-1.1,6.49c-.16,1.87-.19,3.39-.2,4.45a11.22,11.22,0,0,1,0,1.64,7.56,7.56,0,0,1-.18-1.64,41.84,41.84,0,0,1,0-4.48,33.44,33.44,0,0,1,1-6.59,21.54,21.54,0,0,1,1.31-3.74,22.41,22.41,0,0,1,2.21-3.63A30.48,30.48,0,0,1,270,270.83a27.24,27.24,0,0,1,4.19-1.61A9.09,9.09,0,0,1,275.68,268.85Z"/><polygon class="cls-8" points="33.65 382.97 131.88 419.36 214.69 432.02 116.24 384.02 33.65 382.97"/><path class="cls-9" d="M75.69,422.21a41.85,41.85,0,0,0-5.23-14.89,10.71,10.71,0,0,1-1.34-2.79,3.19,3.19,0,0,1,.56-2.93c1.26-1.38,3.56-.77,5.11.27a18,18,0,0,1,6.61,9.26,53.64,53.64,0,0,1,2.17,11.36"/><path class="cls-9" d="M114,412.85h-4.89a9.56,9.56,0,0,0-4.28-2.46c-1.13-.32-2.23.28-3.23,1.26,2.18-3.6,4.53-7.56,5-8.64.88-2.11-1.06-3.69-4.22-3.69S85.29,419,85.29,419s8.64-15.84,9.47-18.26c2.09-6.05-4.52-6.5-6.92-3.58-3,3.62-15,21.84-15,21.84s-2.28,3.69-.7,7.2,6.15,2.11,6.15,2.11a5.9,5.9,0,0,0,3.23,4.89c3.52,2,8.16-.31,8.16-.31l18,4,6.5-.65a20,20,0,0,0,17.76-16.93h0Z"/><path class="cls-11" d="M101.87,411.38c.2.12-2.19,3.88-5.3,8.39-1.55,2.26-3,4.28-4,5.73a14.26,14.26,0,0,1-1.82,2.27,15,15,0,0,1,1.49-2.5c1-1.5,2.37-3.56,3.92-5.82s3-4.28,4-5.74c.46-.64.87-1.21,1.25-1.72A3.05,3.05,0,0,1,101.87,411.38Z"/><path class="cls-11" d="M100.79,431.42a16.4,16.4,0,0,1,1.6-2.94c1.06-1.77,2.57-4.19,4.23-6.86.83-1.33,1.63-2.6,2.28-3.78a4.42,4.42,0,0,0,.4-3.34,8.44,8.44,0,0,0-1.54-2.86,2.75,2.75,0,0,1,.7.59,5.77,5.77,0,0,1,1.22,2.17,4.72,4.72,0,0,1-.32,3.68c-.65,1.22-1.43,2.5-2.26,3.84-1.66,2.68-3.23,5.06-4.38,6.77A22.77,22.77,0,0,1,100.79,431.42Z"/><path class="cls-11" d="M110.24,433.21a10.63,10.63,0,0,1,1-2.8l1.28-2.93a23.51,23.51,0,0,0,1.32-3.63,4.23,4.23,0,0,0-.57-3.51,3.23,3.23,0,0,0-1.28-.91,3.68,3.68,0,0,0-1.34-.38,5.42,5.42,0,0,0-1.94.68,2.06,2.06,0,0,1-.74.3,3,3,0,0,1,.63-.49c.22-.14.48-.31.81-.49a3,3,0,0,1,1.24-.39,4.43,4.43,0,0,1,3,1.36,4.64,4.64,0,0,1,.72,4,21.27,21.27,0,0,1-1.4,3.71c-.5,1.1-1,2.07-1.39,2.88C110.74,432.2,110.32,433.23,110.24,433.21Z"/><path class="cls-11" d="M113.55,416.21a1.93,1.93,0,0,1,.76.23,9.07,9.07,0,0,1,1.88,1.1,10.24,10.24,0,0,1,2.91,13,8.13,8.13,0,0,1-1.23,1.79c-.35.38-.57.56-.59.54a16,16,0,0,0,1.46-2.51,10.4,10.4,0,0,0-2.8-12.54A27,27,0,0,0,113.55,416.21Z"/><path class="cls-11" d="M81.91,405.88a53.33,53.33,0,0,1-4.07,6.51,51.67,51.67,0,0,1-4.53,6.19,53.33,53.33,0,0,1,4.07-6.51A51.67,51.67,0,0,1,81.91,405.88Z"/><path class="cls-9" d="M198.44,394.3l-11.23-2.54L176.43,381.6a7.6,7.6,0,0,0-4.81-2.07L152,378.4a7.64,7.64,0,0,0-5.38,1.79l-14,11.86,61.2,29.83,8.4.75Z"/><path class="cls-11" d="M165.17,389.06c0,.09-1.45-.18-3.78-.47a16,16,0,0,0-8.89.92,22.91,22.91,0,0,0-4.23,2.65c-1.24.93-2.36,1.79-3.34,2.45A18.83,18.83,0,0,1,142.5,396a3.22,3.22,0,0,1-1,.35c0-.09,1.3-.68,3.17-2.09.94-.7,2-1.59,3.25-2.55a21.91,21.91,0,0,1,4.32-2.74,12.66,12.66,0,0,1,5-1.12,22.4,22.4,0,0,1,4.17.31c1.16.19,2.1.41,2.74.56A3.32,3.32,0,0,1,165.17,389.06Z"/><path class="cls-11" d="M169.2,400c0,.08-.81-.27-2.12-.41a11.43,11.43,0,0,0-5.05.71,25.83,25.83,0,0,0-4.62,2.37,8.7,8.7,0,0,1-1.91,1.06,7.78,7.78,0,0,1,1.69-1.39,19.74,19.74,0,0,1,4.65-2.57,10.37,10.37,0,0,1,5.29-.57A4.1,4.1,0,0,1,169.2,400Z"/><path class="cls-11" d="M194.46,401.8a60.13,60.13,0,0,1-3.81-5.05,60.05,60.05,0,0,1-3.75-5.09,38.14,38.14,0,0,1,7.56,10.14Z"/><path class="cls-12" d="M163.55,379.56l24.88-23.18a2.37,2.37,0,0,0,.13-3.35,1.93,1.93,0,0,0-.3-.27h0a2.37,2.37,0,0,0-3,.12L156.05,379"/><g class="cls-7"><path d="M163.55,379.56l24.88-23.18a2.37,2.37,0,0,0,.13-3.35,1.93,1.93,0,0,0-.3-.27h0a2.37,2.37,0,0,0-3,.12L156.05,379"/></g></g><g id="Character_2" data-name="Character 2"><path class="cls-13" d="M366.83,156.28c-.39-.15-15.45-4.11-14.54,11.13s16,11.18,16,10.74S366.83,156.28,366.83,156.28Z"/><path class="cls-14" d="M363.31,172.65c-.07,0-.25.21-.69.44a2.67,2.67,0,0,1-2,.16c-1.65-.5-3.15-3-3.39-5.71a9,9,0,0,1,.51-3.85,3.06,3.06,0,0,1,1.88-2.15,1.34,1.34,0,0,1,1.61.63c.23.41.15.72.23.75s.31-.28.15-.9a1.74,1.74,0,0,0-.65-.92,2.08,2.08,0,0,0-1.5-.3,3.74,3.74,0,0,0-2.63,2.53,9,9,0,0,0-.66,4.3c.28,3.06,2,5.84,4.26,6.35a2.86,2.86,0,0,0,2.41-.55C363.31,173,363.36,172.68,363.31,172.65Z"/><path class="cls-8" d="M404.87,101.85c7.74,0,15.63,0,25.32,5.06,6.11,3.2,9.92,8.25,13.1,14.37a33,33,0,0,1,3.6,16.07c-.28,5.27-.3,9-2.4,13.8"/><path class="cls-13" d="M401.78,103.05a41.07,41.07,0,0,1,43.85,38.09c0,.24,0,.48,0,.72,1,19.09,1.88,39.73,1.67,50.13-.46,22.3-22.8,25.6-22.8,25.6s.49,6.61,1,14.82a29.39,29.39,0,0,1-27.35,31.3l-.85,0h0a29.38,29.38,0,0,1-30.48-28.24v0l-3.32-89.92a41.09,41.09,0,0,1,38.2-42.5Z"/><path class="cls-14" d="M424.54,217.59s-13.71.71-28.62-8.82c0,0,6.74,16.23,29,14.4Z"/><path class="cls-8" d="M437.13,154.28a3.19,3.19,0,0,1-3.1,3.19,3,3,0,0,1-3.25-2.73c0-.05,0-.11,0-.17a3.18,3.18,0,0,1,3.09-3.2,3.06,3.06,0,0,1,3.27,2.84Z"/><path class="cls-8" d="M440.22,149.77c-.4.41-2.8-1.4-6.23-1.42s-5.95,1.68-6.32,1.26c-.18-.19.22-.94,1.33-1.73a8.77,8.77,0,0,1,5.06-1.51A8.43,8.43,0,0,1,439,148C440.06,148.83,440.41,149.58,440.22,149.77Z"/><path class="cls-8" d="M403.5,154.28a3.17,3.17,0,0,1-3.1,3.19,3.05,3.05,0,0,1-3.26-2.83v-.07a3.19,3.19,0,0,1,3.1-3.19,3,3,0,0,1,3.25,2.73S403.5,154.22,403.5,154.28Z"/><path class="cls-8" d="M406.51,150.14c-.4.41-2.8-1.4-6.23-1.42S394.33,150.4,394,150c-.18-.19.22-.94,1.33-1.72a8.7,8.7,0,0,1,5.06-1.52,8.48,8.48,0,0,1,5,1.64C406.35,149.2,406.71,150,406.51,150.14Z"/><path class="cls-8" d="M418.75,175.66c0-.19,2.12-.54,5.58-1,.87-.08,1.7-.25,1.86-.84a4.46,4.46,0,0,0-.57-2.6c-.8-2.13-1.65-4.36-2.53-6.69C419.57,155,417,147.18,417.41,147s3.55,7.47,7.07,17l2.43,6.73a5.06,5.06,0,0,1,.42,3.44,2.22,2.22,0,0,1-1.45,1.27,6.27,6.27,0,0,1-1.49.19C420.92,175.86,418.76,175.86,418.75,175.66Z"/><path class="cls-8" d="M408.64,178c.56,0,.54,3.7,3.7,6.36s7.13,2.29,7.15,2.81c.05.24-.88.72-2.56.75a9.18,9.18,0,0,1-6-2.13,8.09,8.09,0,0,1-2.87-5.33C408,178.85,408.39,177.93,408.64,178Z"/><path class="cls-8" d="M407.5,136.71c-.34.93-3.76.46-7.79.91s-7.29,1.52-7.82.68c-.23-.4.34-1.27,1.66-2.16a13.1,13.1,0,0,1,5.81-2,12.86,12.86,0,0,1,6.08.76C406.91,135.53,407.65,136.27,407.5,136.71Z"/><path class="cls-8" d="M439.74,137.56c-.61.77-3-.05-5.81-.11s-5.25.48-5.79-.34c-.24-.4.14-1.18,1.2-1.91a8.44,8.44,0,0,1,9.35.37C439.68,136.38,440,137.18,439.74,137.56Z"/><path class="cls-8" d="M363.84,152.52s1,5.15,1.23,7.48c.1.85,0,10.31,2.28,10.78,2,.41,5.9-1.39,7.65-5.3s5.07-13.29,4.71-17.56c-.49-5.82-.76-11.73.4-17.45s3.9-11.31,8.5-14.91,11.23-4.85,16.45-2.23c3.23,1.61,5.64,4.47,8.64,6.47a13.38,13.38,0,0,0,9.2,2.39,8.64,8.64,0,0,0,7.11-5.83c1-3.4-.8-7.13-3.52-9.39s-6.25-3.29-9.72-4c-9.62-1.91-19.82-1.53-29,2s-17.26,10.37-21.17,19.37c-4.52,10.41-4,16.78-2.8,28.13"/><path class="cls-8" d="M414.84,154.42a25.25,25.25,0,0,0-.58-3.67,15,15,0,0,0-5.53-8.22,14.74,14.74,0,0,0-6.29-2.77,15,15,0,0,0-7.83.66,14.64,14.64,0,0,0-6.92,5.16,14.85,14.85,0,0,0,0,17.6,15.13,15.13,0,0,0,6.92,5.2,15,15,0,0,0,14.13-2.11,15.12,15.12,0,0,0,5.52-8.21,25.39,25.39,0,0,0,.58-3.68.53.53,0,0,1,0,.25v.72a7.68,7.68,0,0,1-.09,1.17,10.58,10.58,0,0,1-.28,1.59A15.28,15.28,0,0,1,396,169.34a14.56,14.56,0,0,1-1.59-.48,15.39,15.39,0,0,1-7.18-23.6,15.39,15.39,0,0,1,15.27-6,15.24,15.24,0,0,1,12,11.39,10.58,10.58,0,0,1,.28,1.59,7.68,7.68,0,0,1,.09,1.17v.72A.7.7,0,0,1,414.84,154.42Z"/><path class="cls-8" d="M454.12,154.42a26.69,26.69,0,0,0-.58-3.67,15.16,15.16,0,0,0-5.53-8.22,15,15,0,0,0-14.13-2.11,14.22,14.22,0,0,0-3.77,2,14.05,14.05,0,0,0-3.14,3.16,14.79,14.79,0,0,0,0,17.6,15,15,0,0,0,26.56-5.08,26.84,26.84,0,0,0,.58-3.68,1,1,0,0,1,0,.25v.72a7.68,7.68,0,0,1-.09,1.17,10.58,10.58,0,0,1-.28,1.59,15.35,15.35,0,1,1-27.23-12.85,15.39,15.39,0,0,1,15.27-6,15.24,15.24,0,0,1,12,11.39,10.58,10.58,0,0,1,.28,1.59,7.68,7.68,0,0,1,.09,1.17v.72A1.07,1.07,0,0,1,454.12,154.42Z"/><path class="cls-8" d="M424.15,152.8a8.82,8.82,0,0,1-1.4-.48,8.87,8.87,0,0,0-3.43-.44,9.51,9.51,0,0,0-3.35.89c-.81.39-1.27.74-1.33.67s.33-.51,1.13-1a7.79,7.79,0,0,1,7.13-.47C423.76,152.35,424.19,152.75,424.15,152.8Z"/><path class="cls-8" d="M430.24,115.16c.22-1.15-.17-1.8.49-2.28s2.15.88,2.66,1.45c.16.18.69-.53.89-.66a3.78,3.78,0,0,0,.39-1.48c-.09-.81-1.36-1-2-1.58a5.93,5.93,0,0,0-2.1-1.19,2,2,0,0,0-2,.12,1.94,1.94,0,0,0-.45,1.51,4.21,4.21,0,0,0,.3,1.57,2.24,2.24,0,0,0,1.08,1.15"/><path class="cls-3" d="M363,140.66s10.94,4,16.63,6.42l-.32-5.59-15.91-6.3S363,139.35,363,140.66Z"/><path class="cls-3" d="M364,132a59.67,59.67,0,0,1,7.75,3,61.67,61.67,0,0,1,7.52,3.48,59.54,59.54,0,0,1-7.74-3A61.8,61.8,0,0,1,364,132Z"/><path class="cls-6" d="M367.33,249.82l-.84-26.48s5.26,24.23,32.81,23.92c26.32-.31,25.84-21.35,25.84-21.35l.94,10.67v43.11L408.91,350,387,352.79l-24.24-96.13Z"/><path class="cls-8" d="M422.69,241.34a2.63,2.63,0,0,1-.31.57,15.93,15.93,0,0,1-1.05,1.53,22.31,22.31,0,0,1-4.9,4.75,28.28,28.28,0,0,1-9.16,4.3,32.4,32.4,0,0,1-12.36.86A40.38,40.38,0,0,1,383,249.77a51.17,51.17,0,0,1-8.67-5.22,60.55,60.55,0,0,1-5.25-4.35c-.6-.54-1-1-1.33-1.29a4,4,0,0,1-.44-.48,2.81,2.81,0,0,1,.51.4l1.4,1.21c1.22,1,3,2.52,5.34,4.19a54.34,54.34,0,0,0,8.66,5.07A40.8,40.8,0,0,0,395,252.79a32.52,32.52,0,0,0,12.15-.8,28.43,28.43,0,0,0,9.07-4.12,24.34,24.34,0,0,0,5-4.56C422.16,242.06,422.64,241.31,422.69,241.34Z"/><path class="cls-3" d="M403.58,467.35l-.4-125-35.49-91.2L366.5,223.7l-21.62,16.35s-31.49,108.36-32,104.6,0,122.66,0,122.66Z"/><path class="cls-8" d="M402.72,467c-.15,0-.28-28.15-.28-62.88s.13-62.89.28-62.89.28,28.15.28,62.89S402.88,467,402.72,467Z"/><polygon class="cls-2" points="345.19 257.94 349.58 261.26 346.5 281.48 398.3 335.74 351.25 273.96 355.26 257.94 345.19 257.94"/><path class="cls-3" d="M405.52,403.34,326,380l-2.63-60.39,21.8-79.55s-52,25.93-55.51,42.43-12.06,56.61-13,85.6c-.81,25.93-.93,43.26,5,51.53,16.95,23.7,128.67,27.93,173.3,0"/><path class="cls-8" d="M399.3,337.05a2.67,2.67,0,0,1-.26-.29l-.72-.89c-.63-.82-1.54-2-2.7-3.46l-9.84-12.79-32.32-42.3L351,274.13l-.08-.11v-.13c1.38-5.53,2.73-10.9,4-16l.27.33H344.93V240l.08-.07,15.63-11.87,4.28-3.22,1.13-.83a2.11,2.11,0,0,1,.4-.26,2.67,2.67,0,0,1-.36.31l-1.09.88-4.22,3.31-15.51,12,.09-.17v17.85l-.26-.26h10.5l-.08.34-4,16v-.23c.81,1,1.62,2.12,2.43,3.19l32.19,42.4c4.08,5.43,7.4,9.82,9.71,12.9,1.12,1.5,2,2.69,2.61,3.52.28.39.51.69.67.92A3.59,3.59,0,0,1,399.3,337.05Z"/><path class="cls-3" d="M434.73,235.39c-6.34-11.09-9.62-9.94-9.62-9.94l.33,4v8.3l-3,35.63-19.26,77.43.4,116.58h72.8L485.44,325l-.82-61.3Z"/><path class="cls-3" d="M484.62,263.74s18.84,13.91,20.47,36.29c1.33,18.18,4.37,68,4.92,78.79.86,16.88-12.28,56.39-46.49,45.2-20.52-6.71-96.32-32.48-96.32-32.48l5-32.19,90,5.36,1.79-75Z"/><path class="cls-13" d="M371.22,363.06s-25.46-2.76-31.36-1.33c-5.67,1.36-13.74,8.3-13.74,8.3l.11,10.06,41,11.45Z"/><path class="cls-8" d="M403.18,339.13a1.93,1.93,0,0,1,.11-.34l.38-1c.37-.9.88-2.18,1.53-3.8l5.69-14c2.43-5.89,5.32-12.89,8.52-20.67.81-1.93,1.61-3.95,2.61-5.93s2.09-3.94,3.26-5.92a131.78,131.78,0,0,1,8.09-11.67c1.47-1.89,2.95-3.74,4.48-5.51l-.05.29-3.17-8.07-.11-.26.27-.1,13.27-4.51-.13.37-15.05-25.12c-1.82-3-3.38-5.48-5-6.48a6.6,6.6,0,0,0-2-.82,4.58,4.58,0,0,1-.73-.18,6.85,6.85,0,0,1,2.83.86,9.26,9.26,0,0,1,2.55,2.48,44.66,44.66,0,0,1,2.65,4l15.22,25,.17.27-.3.1L435,262.71l.17-.36q1.54,3.94,3.18,8.07l.06.15-.11.13c-1.52,1.76-3,3.6-4.46,5.49a132.69,132.69,0,0,0-8.06,11.61c-1.16,2-2.29,3.9-3.25,5.87s-1.79,3.95-2.61,5.89c-3.24,7.76-6.17,14.74-8.63,20.62l-5.86,13.89-1.62,3.76-.44,1A1.17,1.17,0,0,1,403.18,339.13Z"/><path class="cls-8" d="M495,417.75c-.1.12-.21.23-.32.34l-1,.94a28.63,28.63,0,0,1-4.13,3.14,28.13,28.13,0,0,1-7.57,3.17,30.66,30.66,0,0,1-10.84.69,34.49,34.49,0,0,1-6.21-1.32c-2.11-.67-4.23-1.5-6.46-2.28-4.45-1.62-9.22-3.29-14.24-5.06-10-3.51-21.11-7.28-32.77-11.1-23.33-7.67-44.6-14.13-60-18.73l-18.28-5.4-5-1.48-1.29-.4a3.12,3.12,0,0,1-.43-.15,2.16,2.16,0,0,1,.44.1l1.31.34,5,1.37c4.34,1.21,10.6,3,18.33,5.24,15.45,4.51,36.75,10.91,60.09,18.57,11.66,3.83,22.73,7.61,32.77,11.15,5,1.78,9.77,3.48,14.22,5.11,2.22.79,4.36,1.64,6.43,2.31a33.56,33.56,0,0,0,6.12,1.33,30.45,30.45,0,0,0,10.72-.6,28,28,0,0,0,7.53-3,30.06,30.06,0,0,0,4.18-3l1-.89Z"/><path class="cls-8" d="M326.23,380.27c0,.12-1.43-.19-3.71-.1a16.9,16.9,0,0,0-3.93.65,18,18,0,0,0-4.43,2,20.56,20.56,0,0,0-6.16,6.33c-1.21,1.94-1.73,3.28-1.83,3.24a4.43,4.43,0,0,1,.3-1,17.13,17.13,0,0,1,1.19-2.48,19.4,19.4,0,0,1,6.2-6.6,17.52,17.52,0,0,1,4.59-2,15.89,15.89,0,0,1,4.06-.55,13.4,13.4,0,0,1,2.75.25A3,3,0,0,1,326.23,380.27Z"/><path class="cls-8" d="M301.19,372.38a.62.62,0,0,1,.1-.28,2.94,2.94,0,0,1,.5-.71,5.14,5.14,0,0,1,2.83-1.4,14,14,0,0,1,4.66,0,27,27,0,0,1,5.54,1.34,24.25,24.25,0,0,1,8.79,5.38,19,19,0,0,1,2,2.38,4.39,4.39,0,0,1,.59,1c-.09.07-1-1.32-2.9-3.08a26,26,0,0,0-8.7-5.14,28.12,28.12,0,0,0-5.42-1.36,14.9,14.9,0,0,0-4.52-.13,5.08,5.08,0,0,0-2.74,1.17C301.42,372,301.24,372.41,301.19,372.38Z"/><path class="cls-8" d="M330.87,303a9,9,0,0,1-.36-1.64c-.16-.51-.4-1.13-.64-1.85a12.59,12.59,0,0,0-1.18-2.3,32.74,32.74,0,0,0-4.05-5.39,43.05,43.05,0,0,0-6.21-5.47,37.33,37.33,0,0,0-13.58-6.23,28.67,28.67,0,0,0-4.52-.58,10.56,10.56,0,0,1-1.68-.13,9.58,9.58,0,0,1,1.69-.09,24.34,24.34,0,0,1,4.59.41,35.69,35.69,0,0,1,13.83,6.17,40.47,40.47,0,0,1,6.24,5.6,30.25,30.25,0,0,1,4,5.54c.48.85.8,1.68,1.12,2.39a10,10,0,0,1,.56,1.91A10.29,10.29,0,0,1,330.87,303Z"/><path class="cls-8" d="M481.8,395.36a2.41,2.41,0,0,1,0-.38v-1.13c0-1-.07-2.46-.22-4.34A61,61,0,0,0,478.34,374a22,22,0,0,0-2.19-4.75,9.35,9.35,0,0,0-4.21-3.58c-3.62-1.56-8-1.35-12.4-1.6l-29-1.22c-24-1-45.26-1.94-58.65-2.65l.18-.15c-.81,4.92-1.45,8.82-1.89,11.53-.23,1.31-.41,2.32-.53,3.05l-.15.78a1.31,1.31,0,0,1-.06.27.61.61,0,0,1,0-.27c0-.2.06-.46.1-.79.11-.73.25-1.75.44-3.07.41-2.71,1-6.62,1.74-11.55v-.16h.16l58.66,2.44,29,1.26c2.22.11,4.39.17,6.51.34a18.54,18.54,0,0,1,6.05,1.36,9.74,9.74,0,0,1,4.39,3.76,22.35,22.35,0,0,1,2.19,4.86,57.8,57.8,0,0,1,3,15.68c.11,1.88.11,3.35.11,4.35V395A1.93,1.93,0,0,1,481.8,395.36Z"/><path class="cls-8" d="M464.64,324.93c.15,0,.28,8.71.28,19.46s-.13,19.46-.28,19.46-.28-8.71-.28-19.46S464.48,324.93,464.64,324.93Z"/><path class="cls-8" d="M290.31,280.57s-.07.25-.22.72-.42,1.16-.65,2.11c-.53,1.87-1.19,4.66-1.94,8.3-1.5,7.28-3.35,17.93-5.43,31.26-1,6.66-2.13,14-3.21,21.93-.55,4-.89,8.09-1.18,12.36s-.51,8.68-.67,13.22c-.33,9.08-.53,18.67-.26,28.67.07,2.49.16,5,.37,7.55.07,1.28.28,2.53.43,3.8a31.73,31.73,0,0,0,.92,3.73,21.33,21.33,0,0,0,3.58,6.84,15.51,15.51,0,0,0,6.14,4.73h.05a93.22,93.22,0,0,0,16,6.11c5.58,1.67,11.35,3,17.21,4.23a237.25,237.25,0,0,0,38.66,4.71,183.36,183.36,0,0,0,18.46-.48q9-.63,17.55-1.89a185.69,185.69,0,0,0,31.49-7.32,162.27,162.27,0,0,0,25.47-10.93v.35L418.15,408.2l-9.41-3.35-2.43-.89-.82-.31.84.26,2.45.83,9.44,3.27,35,12.2.41.14-.38.21a159.84,159.84,0,0,1-25.51,11A184.43,184.43,0,0,1,396.2,439c-5.68.85-11.56,1.49-17.58,1.91a181.52,181.52,0,0,1-18.51.5,237.22,237.22,0,0,1-38.76-4.71c-5.88-1.21-11.66-2.56-17.26-4.24A94.37,94.37,0,0,1,288,426.29h0a15.93,15.93,0,0,1-6.4-4.91,21.61,21.61,0,0,1-3.66-7,31.46,31.46,0,0,1-.94-3.8c-.16-1.29-.37-2.57-.43-3.84-.21-2.56-.3-5.09-.37-7.59-.25-10,0-19.61.3-28.7.17-4.54.41-9,.7-13.23s.65-8.42,1.21-12.39c1.11-7.93,2.23-15.27,3.28-21.93,2.13-13.33,4-24,5.6-31.24.78-3.63,1.47-6.43,2-8.29.2-.71.43-1.41.7-2.1C290.21,280.81,290.31,280.57,290.31,280.57Z"/><path class="cls-2" d="M326.12,372.81c13.29-14.72,12.71-40.89,5.08-59.46-.71,20.11-3.08,37.95-4.9,57.5"/><path class="cls-8" d="M331.23,317.11a3.53,3.53,0,0,1,0,.65c0,.48-.07,1.09-.12,1.84l-.53,6.74c-.47,5.77-1.12,13.6-1.83,22.26s-1.29,16.5-1.75,22.27c-.21,2.79-.38,5.08-.5,6.75l-.16,1.83a2.76,2.76,0,0,1-.1.64,3.53,3.53,0,0,1,0-.65c0-.48,0-1.09.06-1.84.05-1.59.17-3.9.33-6.76.32-5.71.87-13.59,1.58-22.28s1.43-16.56,2-22.25c.29-2.79.53-5.07.7-6.73.1-.75.17-1.35.23-1.83A3.4,3.4,0,0,1,331.23,317.11Z"/><path class="cls-8" d="M364,290.52c.15,0,.28,5.11.28,11.41s-.13,11.42-.28,11.42-.28-5.11-.28-11.42S363.84,290.52,364,290.52Z"/><path class="cls-2" d="M355.34,328.44a11.65,11.65,0,0,0,2.44,6.05c1.25,1.63,3.79,3.21,5.84,3.1a8.9,8.9,0,0,0,7.85-3.94c2.48-4,3.1-12.2,1.1-17.07-1.37-3.35-4.45-6.47-8.07-6.55-4.75-.11-7.73,3.32-8.75,6.79"/><path class="cls-8" d="M355.75,316.82a7.48,7.48,0,0,1,.88-2.33,9.65,9.65,0,0,1,1.79-2.33,8.24,8.24,0,0,1,3.36-2,8.6,8.6,0,0,1,2.26-.36,6.68,6.68,0,0,1,2.47.33,9.7,9.7,0,0,1,4.41,3.16,12.75,12.75,0,0,1,2.6,5.4,23.3,23.3,0,0,1,.48,6.4c-.22,3.38-.89,6.75-2.76,9.32a8.25,8.25,0,0,1-3.58,2.7,9.72,9.72,0,0,1-4.06.69h0a6.18,6.18,0,0,1-2.91-.72,9.79,9.79,0,0,1-2.19-1.53,11.08,11.08,0,0,1-2.38-3.55,10.06,10.06,0,0,1-.75-2.62,4.39,4.39,0,0,1-.07-.72v-.24a14.49,14.49,0,0,0,1.05,3.47,10.79,10.79,0,0,0,2.4,3.39,9.47,9.47,0,0,0,2.12,1.42,5.7,5.7,0,0,0,2.69.64h0a8.66,8.66,0,0,0,7.18-3.25c1.74-2.41,2.41-5.72,2.62-9,.23-4.27-.49-8.58-2.92-11.44a9.33,9.33,0,0,0-4.15-3,6.77,6.77,0,0,0-2.32-.34,8.08,8.08,0,0,0-5.42,2.14,9.84,9.84,0,0,0-1.81,2.21C356,316,355.82,316.85,355.75,316.82Z"/><path class="cls-2" d="M352.81,328.65a11.82,11.82,0,0,0,2.45,6.06c1.24,1.62,3.78,3.21,5.83,3.09a8.88,8.88,0,0,0,7.85-3.94c2.49-4,3.1-12.2,1.1-17.07-1.37-3.35-4.45-6.46-8.07-6.55-4.75-.11-7.73,3.32-8.74,6.8"/><path class="cls-8" d="M353.23,317a7,7,0,0,1,.88-2.33,9.23,9.23,0,0,1,1.78-2.34,8.24,8.24,0,0,1,3.36-2,8.61,8.61,0,0,1,2.26-.37,6.9,6.9,0,0,1,2.47.33,9.7,9.7,0,0,1,4.41,3.16,12.75,12.75,0,0,1,2.6,5.4,23.7,23.7,0,0,1,.48,6.4c-.22,3.39-.88,6.75-2.76,9.32a8.35,8.35,0,0,1-3.58,2.71,9.87,9.87,0,0,1-4.06.68h0a6.18,6.18,0,0,1-2.91-.72,9.73,9.73,0,0,1-2.18-1.53,11.22,11.22,0,0,1-3.14-6.17,5.69,5.69,0,0,1-.07-.71.53.53,0,0,1,0-.25,14.56,14.56,0,0,0,1.05,3.48,11.19,11.19,0,0,0,2.4,3.38,9.14,9.14,0,0,0,2.12,1.42,5.74,5.74,0,0,0,2.7.64h0a8.64,8.64,0,0,0,7.18-3.25c1.74-2.41,2.41-5.72,2.62-9,.23-4.27-.49-8.57-2.92-11.44a9.41,9.41,0,0,0-4.15-3.05,6.52,6.52,0,0,0-2.32-.33,7.89,7.89,0,0,0-2.16.31,8.22,8.22,0,0,0-3.26,1.82,9.63,9.63,0,0,0-1.8,2.22A18.38,18.38,0,0,0,353.23,317Z"/><path class="cls-2" d="M357.39,315.82a5.56,5.56,0,0,0-5.8,3.34,9.61,9.61,0,0,0,0,7,8.52,8.52,0,0,0,1.8,3.18,4.74,4.74,0,0,0,3.22,1.56,5.62,5.62,0,0,0,4.46-2.63,10.09,10.09,0,0,0,1.52-8.29c-.49-1.87-1.87-3.79-3.81-3.84"/><path class="cls-8" d="M358.8,316.19h.43a3.07,3.07,0,0,1,1.17.4,5.73,5.73,0,0,1,2.47,3.71,10.23,10.23,0,0,1-.66,6.61,8.41,8.41,0,0,1-2.42,3.18,4.68,4.68,0,0,1-4.17,1,5.8,5.8,0,0,1-3.33-2.72,11.93,11.93,0,0,1-1.39-3.73,8.29,8.29,0,0,1,1.1-6.54,5.88,5.88,0,0,1,3.77-2.39,4.22,4.22,0,0,1,1.23,0c.28.06.42.1.41.12a8.55,8.55,0,0,0-1.6.1,5.71,5.71,0,0,0-3.48,2.41,8,8,0,0,0-.9,6.19,11.85,11.85,0,0,0,1.35,3.55,5.28,5.28,0,0,0,3,2.47,4.16,4.16,0,0,0,3.68-.89,8.32,8.32,0,0,0,2.29-3,10,10,0,0,0,.75-6.3,5.71,5.71,0,0,0-2.2-3.62A4.67,4.67,0,0,0,358.8,316.19Z"/><path class="cls-8" d="M362.84,333.58c-.08,0-.2-.34-.57-.78a4.18,4.18,0,0,0-1.85-1.18,10.22,10.22,0,0,0-2.26-.35c-.61,0-1-.1-1-.17s.37-.17,1-.23a6.28,6.28,0,0,1,2.44.21,3.65,3.65,0,0,1,2,1.49C362.93,333.14,362.91,333.57,362.84,333.58Z"/><path class="cls-8" d="M363.69,314.35c.05,0-.17.39-.67.78a5.34,5.34,0,0,1-4.76.86c-.61-.19-.93-.43-.9-.5a12.87,12.87,0,0,0,3.28.09A13.92,13.92,0,0,0,363.69,314.35Z"/><path class="cls-8" d="M437.9,237a.78.78,0,0,1,.35.13,7.77,7.77,0,0,1,1,.5,19.45,19.45,0,0,1,3.24,2.31,23.17,23.17,0,0,1,6.95,11,70.07,70.07,0,0,1,2.65,12.81c.19,1.66.29,3,.35,3.94a7.12,7.12,0,0,1,0,1.46,7,7,0,0,1-.25-1.44c-.14-1-.31-2.35-.52-3.91a82.24,82.24,0,0,0-2.8-12.7,24,24,0,0,0-6.67-10.86A37.79,37.79,0,0,0,437.9,237Z"/><path class="cls-8" d="M424.45,355.87c3.13-.12,5.63-3.24,8.76-3.07a4.35,4.35,0,1,1-.74,8.67h0c-3.28-.38-5.21-4.23-8.43-5"/><path class="cls-8" d="M451,358.54a18,18,0,0,1-2.93-.24l.17-1.07c3.87.62,7.12,0,9.66-1.89,3.2-2.34,5.26-6.55,6.12-12.49v-.22c.35-2.36.84-48.55.84-57.32,0-13.7-12-15.57-12.54-15.64s-11.41-1.92-17.21,13.05c-6.07,15.66-15.78,45.86-16.42,49.4-.08.43-.2,1-.34,1.59-1,4.53-3.11,14,3.18,19.39,7,6,12.54,3.71,12.77,3.61l.44,1c-.26.12-6.36,2.76-13.92-3.77-6.77-5.86-4.58-15.71-3.52-20.44.13-.61.25-1.13.32-1.56.65-3.56,10.39-33.88,16.48-49.59s18.28-13.75,18.4-13.73,13.5,2,13.5,16.69c0,7.23-.48,55-.86,57.48V343c-.91,6.24-3.11,10.68-6.55,13.2A12.36,12.36,0,0,1,451,358.54Z"/><path class="cls-8" d="M465.43,294.15a20.25,20.25,0,0,0-2.25-5.39,18.06,18.06,0,0,0-4.27-4.62,18.68,18.68,0,0,0-6.93-3.28,20.32,20.32,0,0,0-13.68,1.79,24.19,24.19,0,0,0-4.75,3.4,1.59,1.59,0,0,1,.25-.33,8.24,8.24,0,0,1,.81-.86,16,16,0,0,1,3.51-2.56,20,20,0,0,1,14-2,18.19,18.19,0,0,1,11.42,8.23,14.49,14.49,0,0,1,1.67,4,7.76,7.76,0,0,1,.21,1.17A1.14,1.14,0,0,1,465.43,294.15Z"/><path class="cls-8" d="M492.93,380.49a35.34,35.34,0,0,0-1.48-4.61,20.13,20.13,0,0,0-7.33-8.79,16,16,0,0,0-5.94-2.15c-1.95-.32-3.73-.44-5.23-.54l-3.56-.24a5.74,5.74,0,0,1-1.3-.18,5.74,5.74,0,0,1,1.31,0l3.6,0a46.76,46.76,0,0,1,5.29.43,15.8,15.8,0,0,1,6.17,2.19,19.53,19.53,0,0,1,7.39,9.11,17.25,17.25,0,0,1,1,3.45A5.22,5.22,0,0,1,492.93,380.49Z"/><path class="cls-13" d="M438.45,362.46s10.62-16.09,13.34-18.19,25.89-12.58,28.61-10.89,1,5.33,1,5.33,9.82-3.44,10.86-2.08a4.86,4.86,0,0,1,0,5.53s5.43-.84,5.43.83a6.9,6.9,0,0,1-3.13,5.64c-2.51,1.88-18.8,12.73-20.11,15.73l-5.28-.32Z"/><path class="cls-14" d="M469,357.86a3.84,3.84,0,0,1,.48-1,18.27,18.27,0,0,1,1.75-2.52,29.22,29.22,0,0,1,7.7-6.48,57.74,57.74,0,0,1,9.11-4.28c1.2-.46,2.18-.81,2.87-1a5.1,5.1,0,0,1,1.08-.3,4.71,4.71,0,0,1-1,.51l-2.8,1.2a73.35,73.35,0,0,0-9,4.39,32.23,32.23,0,0,0-7.69,6.26C469.87,356.51,469.11,357.91,469,357.86Z"/><path class="cls-14" d="M455.55,357.6a5.14,5.14,0,0,1,.51-1.18c.37-.75.91-1.82,1.63-3.11a30.29,30.29,0,0,1,2.93-4.34,13.65,13.65,0,0,1,2.23-2.2c.89-.6,1.84-1.17,2.81-1.75A77.93,77.93,0,0,1,476,339.85a30.45,30.45,0,0,1,3.34-1.12,6.76,6.76,0,0,1,1.27-.23c0,.1-1.76.51-4.46,1.72A95.77,95.77,0,0,0,466,345.51c-1,.57-1.92,1.13-2.79,1.71a14.1,14.1,0,0,0-2.14,2.09,32.7,32.7,0,0,0-3,4.2l-1.79,3A6.1,6.1,0,0,1,455.55,357.6Z"/></g><g id="Desk"><path class="cls-8" d="M738.92,467.64c0,.16-162.95.28-363.9.28s-363.94-.12-363.94-.28S174,467.36,375,467.36,738.92,467.49,738.92,467.64Z"/></g></svg>