<?xml version="1.0" encoding="utf-8"?>
<!-- Generator: Adobe Illustrator 23.0.1, SVG Export Plug-In . SVG Version: 6.00 Build 0)  -->
<svg version="1.1" id="Layer_1" xmlns="http://www.w3.org/2000/svg" xmlns:xlink="http://www.w3.org/1999/xlink" x="0px" y="0px"
	 viewBox="0 0 240 240" style="enable-background:new 0 0 240 240;" xml:space="preserve">
<style type="text/css">
	.st0{fill:#4B684D;}
</style>
<title>logo</title>
<path class="st0" d="M164.5,237.1H97.8c-15.7,0-28.5-12.8-28.5-28.5v-38H24.6c-11.9,0-21.6-9.7-21.7-21.6v-6.1h12.3v6.1
	c0,5.2,4.2,9.4,9.4,9.4h50.9c3.4,0,6.1,2.7,6.1,6.1v44.1c0,9,7.3,16.2,16.2,16.2h60.6v-60.4c0-3.4,2.7-6.1,6.1-6.1h60.3v-25.6h-53.7
	c-2.2,0-4.3-1.2-5.4-3.1l-7.1-12.7l-12.3,42.4c-0.9,3.3-4.3,5.1-7.6,4.2c-1.9-0.6-3.5-2.1-4.1-4l-21.2-65.1l-16.2,45.8
	c-1.1,3.2-4.6,4.8-7.8,3.7c-1.4-0.5-2.5-1.4-3.2-2.7l-13.7-23.4l-4.8,9.2c-1.1,2-3.2,3.3-5.4,3.3H9c-3.4,0-6.1-2.7-6.1-6.1
	c0,0,0,0,0,0V75.5c0-3.4,2.7-6.1,6.1-6.1c0,0,0,0,0,0h60.3V9c0-3.4,2.8-6.1,6.1-6.1h66.7c15.7,0,28.5,12.8,28.5,28.5v38h44.8
	c11.9,0,21.6,9.7,21.7,21.6v6.1h-12.3V91c0-5.2-4.2-9.4-9.4-9.4h-50.9c-3.4,0-6.1-2.7-6.1-6.1v-44c0-9-7.3-16.2-16.2-16.2H81.6v60.3
	c0,3.4-2.7,6.1-6.1,6.1H15.1v36.3h43.5l8.1-15.8c1-2,3-3.3,5.3-3.3c2.2-0.1,4.3,1.1,5.4,3l12.7,21.7L108,73.3
	c1.1-3.2,4.6-4.9,7.8-3.8c1.8,0.6,3.2,2.1,3.8,3.9l20.7,63.3L151,99.4c0.9-3.2,4.3-5.1,7.6-4.2c1.6,0.4,2.9,1.5,3.7,2.9l12.5,22.4
	H231c3.4,0,6.1,2.7,6.1,6.1c0,0,0,0,0,0v37.9c0,3.4-2.7,6.1-6.1,6.1c0,0,0,0,0,0h-60.4V231C170.6,234.4,167.9,237.1,164.5,237.1z"/>
</svg>
